<mxfile host="app.diagrams.net" modified="2022-07-16T04:27:13.716Z" agent="5.0 (Windows NT 10.0; Win64; x64) AppleWebKit/537.36 (KHTML, like Gecko) Chrome/103.0.0.0 Safari/537.36" etag="CMonRCGz3UBqAopljIpJ" version="20.0.1" type="github">
  <diagram id="6I0OCvxSQrVGMHxT2VVA" name="Page-1">
    <mxGraphModel dx="1038" dy="547" grid="1" gridSize="10" guides="1" tooltips="1" connect="1" arrows="1" fold="1" page="1" pageScale="1" pageWidth="850" pageHeight="1100" math="0" shadow="0">
      <root>
        <mxCell id="0" />
        <mxCell id="1" parent="0" />
        <mxCell id="dKdSaXE48SgPbhcamS2K-30" value="" style="whiteSpace=wrap;html=1;strokeColor=none;strokeWidth=1;fillColor=#f5f5f5;fontSize=14;" parent="1" vertex="1">
          <mxGeometry x="194" y="670" width="1075" height="300" as="geometry" />
        </mxCell>
        <mxCell id="dKdSaXE48SgPbhcamS2K-31" value="" style="whiteSpace=wrap;html=1;strokeColor=none;strokeWidth=1;fillColor=#f5f5f5;fontSize=14;" parent="1" vertex="1">
          <mxGeometry x="194" y="500" width="1075" height="160" as="geometry" />
        </mxCell>
        <mxCell id="dKdSaXE48SgPbhcamS2K-32" value="" style="whiteSpace=wrap;html=1;strokeColor=none;strokeWidth=1;fillColor=#f5f5f5;fontSize=14;" parent="1" vertex="1">
          <mxGeometry x="184" y="330" width="1075" height="140" as="geometry" />
        </mxCell>
        <mxCell id="dKdSaXE48SgPbhcamS2K-33" value="Node" style="html=1;whiteSpace=wrap;fillColor=#AFFFAF;shape=mxgraph.archimate3.application;appType=node;archiType=square;fontSize=14;verticalAlign=top;" parent="1" vertex="1">
          <mxGeometry x="390" y="815" width="480" height="145" as="geometry" />
        </mxCell>
        <mxCell id="dKdSaXE48SgPbhcamS2K-34" style="edgeStyle=elbowEdgeStyle;rounded=1;elbow=vertical;html=1;startSize=10;endArrow=block;endFill=0;endSize=10;jettySize=auto;orthogonalLoop=1;strokeColor=#808080;fontSize=14;dashed=1;" parent="1" source="dKdSaXE48SgPbhcamS2K-35" target="dKdSaXE48SgPbhcamS2K-40" edge="1">
          <mxGeometry relative="1" as="geometry" />
        </mxCell>
        <mxCell id="dKdSaXE48SgPbhcamS2K-35" value="&lt;div&gt;&lt;br&gt;&lt;/div&gt;System&lt;div&gt;Software&lt;/div&gt;" style="html=1;whiteSpace=wrap;fillColor=#AFFFAF;shape=mxgraph.archimate3.tech;techType=sysSw;fontSize=14;" parent="1" vertex="1">
          <mxGeometry x="444" y="860" width="140" height="60" as="geometry" />
        </mxCell>
        <mxCell id="dKdSaXE48SgPbhcamS2K-36" style="edgeStyle=elbowEdgeStyle;rounded=1;elbow=vertical;html=1;startSize=10;endArrow=block;endFill=0;endSize=10;jettySize=auto;orthogonalLoop=1;strokeColor=#808080;fontSize=14;dashed=1;" parent="1" source="dKdSaXE48SgPbhcamS2K-37" target="dKdSaXE48SgPbhcamS2K-45" edge="1">
          <mxGeometry relative="1" as="geometry" />
        </mxCell>
        <mxCell id="dKdSaXE48SgPbhcamS2K-37" value="&lt;div&gt;&lt;br&gt;&lt;/div&gt;&lt;div&gt;&lt;span&gt;System&lt;/span&gt;&lt;div&gt;Software&lt;/div&gt;&lt;/div&gt;" style="html=1;whiteSpace=wrap;fillColor=#AFFFAF;shape=mxgraph.archimate3.tech;techType=sysSw;fontSize=14;" parent="1" vertex="1">
          <mxGeometry x="684" y="860" width="140" height="60" as="geometry" />
        </mxCell>
        <mxCell id="dKdSaXE48SgPbhcamS2K-38" style="edgeStyle=elbowEdgeStyle;rounded=1;elbow=vertical;html=1;startSize=10;endArrow=open;endFill=0;endSize=10;jettySize=auto;orthogonalLoop=1;strokeColor=#808080;fontSize=14;entryX=0.25;entryY=1;" parent="1" source="dKdSaXE48SgPbhcamS2K-40" target="dKdSaXE48SgPbhcamS2K-49" edge="1">
          <mxGeometry relative="1" as="geometry" />
        </mxCell>
        <mxCell id="dKdSaXE48SgPbhcamS2K-39" style="edgeStyle=elbowEdgeStyle;rounded=1;elbow=vertical;html=1;startSize=10;endArrow=open;endFill=0;endSize=10;jettySize=auto;orthogonalLoop=1;strokeColor=#808080;fontSize=14;entryX=0.25;entryY=1;exitX=0.265;exitY=0.007;exitPerimeter=0;" parent="1" source="dKdSaXE48SgPbhcamS2K-40" target="dKdSaXE48SgPbhcamS2K-47" edge="1">
          <mxGeometry relative="1" as="geometry">
            <Array as="points">
              <mxPoint x="422" y="670" />
            </Array>
          </mxGeometry>
        </mxCell>
        <mxCell id="dKdSaXE48SgPbhcamS2K-40" value="Service" style="html=1;whiteSpace=wrap;fillColor=#AFFFAF;shape=mxgraph.archimate3.service;fontSize=14;" parent="1" vertex="1">
          <mxGeometry x="439" y="680" width="150" height="50" as="geometry" />
        </mxCell>
        <mxCell id="dKdSaXE48SgPbhcamS2K-41" style="edgeStyle=elbowEdgeStyle;rounded=1;elbow=vertical;html=1;startSize=10;endArrow=open;endFill=0;endSize=10;jettySize=auto;orthogonalLoop=1;strokeColor=#808080;fontSize=14;" parent="1" source="dKdSaXE48SgPbhcamS2K-45" target="dKdSaXE48SgPbhcamS2K-53" edge="1">
          <mxGeometry relative="1" as="geometry">
            <Array as="points">
              <mxPoint x="909" y="700" />
            </Array>
          </mxGeometry>
        </mxCell>
        <mxCell id="dKdSaXE48SgPbhcamS2K-42" style="edgeStyle=elbowEdgeStyle;rounded=1;elbow=vertical;html=1;startSize=10;endArrow=open;endFill=0;endSize=10;jettySize=auto;orthogonalLoop=1;strokeColor=#808080;fontSize=14;entryX=0.5;entryY=1;exitX=0.769;exitY=0.025;exitPerimeter=0;" parent="1" source="dKdSaXE48SgPbhcamS2K-45" target="dKdSaXE48SgPbhcamS2K-51" edge="1">
          <mxGeometry relative="1" as="geometry">
            <Array as="points">
              <mxPoint x="809" y="650" />
            </Array>
          </mxGeometry>
        </mxCell>
        <mxCell id="dKdSaXE48SgPbhcamS2K-43" style="edgeStyle=elbowEdgeStyle;rounded=1;elbow=vertical;html=1;startSize=10;endArrow=open;endFill=0;endSize=10;jettySize=auto;orthogonalLoop=1;strokeColor=#808080;fontSize=14;entryX=0.5;entryY=1;exitX=0.468;exitY=0.025;exitPerimeter=0;" parent="1" source="dKdSaXE48SgPbhcamS2K-45" target="dKdSaXE48SgPbhcamS2K-49" edge="1">
          <mxGeometry relative="1" as="geometry">
            <Array as="points">
              <mxPoint x="699" y="620" />
            </Array>
          </mxGeometry>
        </mxCell>
        <mxCell id="dKdSaXE48SgPbhcamS2K-44" style="edgeStyle=elbowEdgeStyle;rounded=1;elbow=vertical;html=1;startSize=10;endArrow=open;endFill=0;endSize=10;jettySize=auto;orthogonalLoop=1;strokeColor=#808080;fontSize=14;exitX=0.251;exitY=0.002;exitPerimeter=0;" parent="1" source="dKdSaXE48SgPbhcamS2K-45" target="dKdSaXE48SgPbhcamS2K-47" edge="1">
          <mxGeometry relative="1" as="geometry">
            <Array as="points">
              <mxPoint x="589" y="650" />
            </Array>
          </mxGeometry>
        </mxCell>
        <mxCell id="dKdSaXE48SgPbhcamS2K-45" value="Service" style="html=1;whiteSpace=wrap;fillColor=#AFFFAF;shape=mxgraph.archimate3.service;fontSize=14;" parent="1" vertex="1">
          <mxGeometry x="679" y="680" width="150" height="50" as="geometry" />
        </mxCell>
        <mxCell id="dKdSaXE48SgPbhcamS2K-46" style="edgeStyle=elbowEdgeStyle;rounded=1;elbow=vertical;html=1;startSize=10;endArrow=open;endFill=0;endSize=10;jettySize=auto;orthogonalLoop=1;strokeColor=#808080;fontSize=14;" parent="1" source="dKdSaXE48SgPbhcamS2K-47" target="dKdSaXE48SgPbhcamS2K-54" edge="1">
          <mxGeometry relative="1" as="geometry" />
        </mxCell>
        <mxCell id="dKdSaXE48SgPbhcamS2K-47" value="Module" style="shape=component;align=center;fillColor=#99ffff;gradientColor=none;fontSize=14;" parent="1" vertex="1">
          <mxGeometry x="329" y="510" width="185" height="80" as="geometry" />
        </mxCell>
        <mxCell id="dKdSaXE48SgPbhcamS2K-48" style="edgeStyle=elbowEdgeStyle;rounded=1;elbow=vertical;html=1;startSize=10;endArrow=open;endFill=0;endSize=10;jettySize=auto;orthogonalLoop=1;strokeColor=#808080;fontSize=14;" parent="1" source="dKdSaXE48SgPbhcamS2K-49" target="dKdSaXE48SgPbhcamS2K-55" edge="1">
          <mxGeometry relative="1" as="geometry" />
        </mxCell>
        <mxCell id="dKdSaXE48SgPbhcamS2K-49" value="Module" style="shape=component;align=center;fillColor=#99ffff;gradientColor=none;fontSize=14;" parent="1" vertex="1">
          <mxGeometry x="537" y="510" width="185" height="80" as="geometry" />
        </mxCell>
        <mxCell id="dKdSaXE48SgPbhcamS2K-50" style="edgeStyle=elbowEdgeStyle;rounded=1;elbow=vertical;html=1;startSize=10;endArrow=open;endFill=0;endSize=10;jettySize=auto;orthogonalLoop=1;strokeColor=#808080;fontSize=14;" parent="1" source="dKdSaXE48SgPbhcamS2K-51" target="dKdSaXE48SgPbhcamS2K-56" edge="1">
          <mxGeometry relative="1" as="geometry" />
        </mxCell>
        <mxCell id="dKdSaXE48SgPbhcamS2K-51" value="Module" style="shape=component;align=center;fillColor=#99ffff;gradientColor=none;fontSize=14;" parent="1" vertex="1">
          <mxGeometry x="761.5" y="510" width="185" height="80" as="geometry" />
        </mxCell>
        <mxCell id="dKdSaXE48SgPbhcamS2K-52" style="edgeStyle=elbowEdgeStyle;rounded=1;elbow=vertical;html=1;startSize=10;endArrow=open;endFill=0;endSize=10;jettySize=auto;orthogonalLoop=1;strokeColor=#808080;fontSize=14;" parent="1" source="dKdSaXE48SgPbhcamS2K-53" target="dKdSaXE48SgPbhcamS2K-57" edge="1">
          <mxGeometry relative="1" as="geometry" />
        </mxCell>
        <mxCell id="dKdSaXE48SgPbhcamS2K-53" value="Module" style="shape=component;align=center;fillColor=#99ffff;gradientColor=none;fontSize=14;" parent="1" vertex="1">
          <mxGeometry x="969" y="510" width="185" height="80" as="geometry" />
        </mxCell>
        <mxCell id="dKdSaXE48SgPbhcamS2K-54" value="Function" style="html=1;whiteSpace=wrap;fillColor=#ffff99;shape=mxgraph.archimate3.application;appType=func;archiType=rounded;fontSize=14;" parent="1" vertex="1">
          <mxGeometry x="346.5" y="360" width="150" height="75" as="geometry" />
        </mxCell>
        <mxCell id="dKdSaXE48SgPbhcamS2K-55" value="Collaboration" style="html=1;whiteSpace=wrap;fillColor=#ffff99;shape=mxgraph.archimate3.application;appType=collab;archiType=square;fontSize=14;" parent="1" vertex="1">
          <mxGeometry x="554.5" y="360" width="150" height="75" as="geometry" />
        </mxCell>
        <mxCell id="dKdSaXE48SgPbhcamS2K-56" value="Application Event" style="html=1;whiteSpace=wrap;fillColor=#ffff99;shape=mxgraph.archimate3.application;appType=event;archiType=rounded;fontSize=14;" parent="1" vertex="1">
          <mxGeometry x="779" y="360" width="150" height="75" as="geometry" />
        </mxCell>
        <mxCell id="dKdSaXE48SgPbhcamS2K-57" value="Process" style="html=1;whiteSpace=wrap;fillColor=#ffff99;shape=mxgraph.archimate3.application;appType=proc;archiType=rounded;fontSize=14;" parent="1" vertex="1">
          <mxGeometry x="986.5" y="360" width="150" height="75" as="geometry" />
        </mxCell>
        <mxCell id="dKdSaXE48SgPbhcamS2K-58" value="Technology" style="text;html=1;strokeColor=none;fillColor=none;align=center;verticalAlign=middle;whiteSpace=wrap;fontSize=14;" parent="1" vertex="1">
          <mxGeometry x="1269" y="751" width="240" height="20" as="geometry" />
        </mxCell>
        <mxCell id="dKdSaXE48SgPbhcamS2K-59" value="Application" style="text;html=1;strokeColor=none;fillColor=none;align=center;verticalAlign=middle;whiteSpace=wrap;fontSize=14;" parent="1" vertex="1">
          <mxGeometry x="1269" y="541" width="240" height="20" as="geometry" />
        </mxCell>
        <mxCell id="dKdSaXE48SgPbhcamS2K-60" value="Business" style="text;html=1;strokeColor=none;fillColor=none;align=center;verticalAlign=middle;whiteSpace=wrap;fontSize=14;" parent="1" vertex="1">
          <mxGeometry x="1259" y="389" width="240" height="20" as="geometry" />
        </mxCell>
        <mxCell id="dKdSaXE48SgPbhcamS2K-61" style="edgeStyle=elbowEdgeStyle;rounded=1;elbow=vertical;html=1;dashed=1;startSize=10;endArrow=block;endFill=0;endSize=10;jettySize=auto;orthogonalLoop=1;strokeColor=#808080;fontSize=14;" parent="1" source="dKdSaXE48SgPbhcamS2K-62" target="dKdSaXE48SgPbhcamS2K-54" edge="1">
          <mxGeometry relative="1" as="geometry" />
        </mxCell>
        <mxCell id="dKdSaXE48SgPbhcamS2K-62" value="" style="html=1;whiteSpace=wrap;fillColor=#ffff99;shape=mxgraph.archimate3.actor;fontSize=14;" parent="1" vertex="1">
          <mxGeometry x="219" y="350" width="50" height="95" as="geometry" />
        </mxCell>
        <mxCell id="dKdSaXE48SgPbhcamS2K-63" value="Title" style="text;strokeColor=none;fillColor=none;html=1;fontSize=24;fontStyle=1;verticalAlign=middle;align=center;" parent="1" vertex="1">
          <mxGeometry x="50" y="70" width="1590" height="40" as="geometry" />
        </mxCell>
        <mxCell id="uHc-3XmVM5cHDH1GtmI1-1" value="&lt;div data-ccp-timestamp=&quot;1657945590812&quot;&gt;&lt;img data-clipservice-dc=&quot;GAU1&quot; data-clipservice-ccplogid=&quot;{f1838dae-6b8c-4b8d-9b63-b9eec0b33ffb}{31}&quot; data-clipservice-ccpid=&quot;{f1838dae-6b8c-4b8d-9b63-b9eec0b33ffb}{32}&quot; class=&quot;Visio&quot; src=&quot;data:image/png;base64,iVBORw0KGgoAAAANSUhEUgAABBQAAAKlCAYAAAB7Wb92AAAAAXNSR0IArs4c6QAAIABJREFUeF7svQ/UXVV58PkYo5gEQ+SNggWRZiFBhhJGHWpN+GozaxG/6EgKlYyQ9HMZaSRmYeMCdX0xf2k+x5KalgFshg9bDTCmS1Kps/IZtJm2IRbXMBQctaGLlUY0ohgoSiBV/mTWc753v+53c+495977nH3O2ef3rhUl7z3n2Xv/nn1u7v7d/edlwg8EIAABCEAAAhCAAAQgAAEIQAACEBiQwMsGvJ7LIQABCEAAAhCAAAQgAAEIQAACEICAIBToBBCAAAQgAAEIQAACEIAABCAAAQgMTAChMDAyboAABCAAAQhAAAIQgAAEIAABCEAAoUAfgAAEIAABCEAAAhCAAAQgAAEIQGBgAgiFgZFxAwQgAAEIQAACEIAABCAAAQhAAAIIBfoABCAAAQhAAAIQgAAEIAABCEAAAgMTQCgMjIwbIAABCEAAAhCAAAQgAAEIQAACEEAo0AcgAAEIQAACEIAABCAAAQhAAAIQGJgAQmFgZNwAAQhAAAIQgAAEIAABCEAAAhCAAEKBPgABCEAAAhCAAAQgAAEIQAACEIDAwAQQCgMj4wYIQAACEIAABCAAAQhAAAIQgAAEEAr0AQhAAAIQgAAEIAABCEAAAhCAAAQGJoBQGBgZN0AAAhCAAAQgAAEIQAACEIAABCCAUKAPQAACEIAABCAAAQhAAAIQgAAEIDAwAYTCwMi4AQIQgAAEIAABCEAAAhCAAAQgAAGEAn0AAhCAAAQgAAEIQAACEIAABCAAgYEJIBQGRsYNEIAABCAAAQhAAAIQgAAEIAABCCAU6AMQgAAEIAABCEAAAhCAAAQgAAEIDEwAoTAwMm6AAAQgAAEIQAACEIAABCAAAQhAAKFAH4AABCAAAQhAAAIQgAAEIAABCEBgYAIIhYGRcQMEIAABCEAAAhCAAAQgAAEIQAACCAX6AAQgAAEIQAACEIAABCAAAQhAAAIDE0AoDIyMGyAAAQhAAAIQgAAEIAABCEAAAhBAKNAHIAABCEAAAhCAAAQgAAEIQAACEBiYAEJhYGTcAAEIQAACEIAABCAAAQhAAAIQgABCgT4AAQhAAAIQgAAEIAABCEAAAhCAwMAEEAoDI+MGCEAAAhCAAAQgAAEIQAACEIAABBAK9AEIQAACEIAABCAAAQhAAAIQgAAEBiaAUBgYGTdAAAIQgAAEIAABCEAAAhCAAAQggFCgD0AAAhCAAAQgAAEIQAACEIAABCAwMAGEwsDIuAECEIAABCAAAQhAAAIQgAAEIAABhAJ9AAIQgAAEIAABCEAAAhCAAAQgAIGBCSAUBkbGDRCAAAQgAAEIQAACEIAABCAAAQggFOgDEIAABCAAAQhAAAIQgAAEIAABCAxMAKEwMDJugAAEIAABCEAAAhCAAAQgAAEIQAChQB+AAAQgAAEIQAACEIAABCAAAQhAYGACCIWBkXEDBCAAAQhAAAIQgAAEIAABCEAAAggF+gAEIAABCEAAAhCAAAQgAAEIQAACAxNAKAyMjBsgAAEIQAACEIAABCAAAQhAAAIQQCjQByAAAQhAAAIQgAAEIAABCEAAAhAYmABCYWBk3AABCEAAAhCAAAQgAAEIQAACEIAAQoE+AAEIQAACEIAABCAAAQhAAAIQgMDABBAKAyPjBghAAAIQgAAEIAABCEAAAhCAAAQQCvQBCEAAAhCAAAQgAAEIQAACEIAABAYmgFAYGBk3QAACEIAABCAAAQhAAAIQgAAEIIBQoA9AAAIQgAAEIAABCEAAAhCAAAQgMDABhMLAyLgBAhCAAAQgAAEIQAACEIAABCAAAYQCfQACEIAABCAAAQhAAAIQgAAEIACBgQkgFAZGxg0QgAAEIAABCEAAAhCAAAQgAAEIIBToAxCAAAQgAAEIQAACEIAABCAAAQgMTAChMDAyboAABCAAAQhAAAIQgAAEIAABCEAAoUAfgAAEIAABCEDAEbhSRC4SkTUicgwsEIAABCAAAQhAoB8BhAL9AwIQgAAEukZAB823jzf6IRFZKiIPtxiCa88yEbljxHYUCQV9fbmI6P8/MWJZ3A4BCEAAAhCAQMsJIBRankCqDwEIQAACAxEIB8RzRWSxiGwbKMrki4sG4SOELrx1mohsGr9qpsHMgqK25PG7UUSuMZIymg/LeIUAuQACEIAABCAAgeEJIBSGZ8edEIAABCDQPgLrxqt8vWHViwbhhkW9JNT88RkDfyQiN4jIxhEH9oO2xVoAWMerkj2xIQABCEAAAp0ngFDofBcAAAQgAIFOEdAB83U5yxz0m36dpXBYRHzZ4AsIf6mEQvufReRyEVnpEdzuzRIIr18gIvvHr9XX5ojIQW/5xXoRuWV82cIiESmzHEPrpzF0qYP/31qMa9N/E5GrRURjujrotZvH67LHW8LghMIDIqJt0R+tl2OiAkPv1eve5dVdr/Prq9fd63EJl2PkLTt5W494R8bbp3Vw/Hzx8Oh47vLaWVSPTnV+GgsBCEAAAhCwJoBQsCZKPAhAAAIQaDoBN5gOB+zhdP4xbyCrg9peU/HzvtUvWhoQ7nvgBr5+nbSep/VZxqD1u8mbleAP9nV/AycU3h4IlLBuet+Z420N6+Uz0MF8WEbejAK95mavzLwY/uv+spO8eOH92r/yhELYzqJ6NL2fUj8IQAACEIBA4wkgFBqfIioIAQhAAAIVEHCDbZ1d4L6B7zd4ni0iO8eXFYQbH4ZCwcXeF2yS6M8gCO/JGzSHg/cQg1vu4E5kCGPk1aNX3VzsPDni17uMUMhbVuJmZOgsg37LTkYRCnm8tV3+jBO/HhV0K0JCAAIQgAAEukUAodCtfNNaCEAAAhCYTCD8Ftsf7IYDXx3sqlSYFywD6CUU/KUQrlQ39d9CKPjLFvxWOUGSJw/yxIV/by+h4AbmZYWCW04R1mvr+PKEcPDvrrMWCr3qYbmHBs8UBCAAAQhAoLMEEAqdTT0NhwAEIAABEQkH2G5AqwPR1T02OQwH6mVnKPQbuA86Q6HX5oX+gP/ZnMH7sDMUBhUK7vq8TlbnDAU6PQQgAAEIQAAChgQQCoYwCQUBCEAAAo0mEO45oJUN9xPwl0L4Gyz6DcsTCsu9jQ3z4oZgRp2h0Os0Bl9M6MaKutFkOBugaA+Fi4J9G3wBkDdDQWdtfMTbMDGc9RG2PXw93EMhjBdumOnaeOr4Pg1uU8awnUX1aHRnpXIQgAAEIACBNhBAKLQhS9QRAhCAAASsCPjLFjSmf8KBKyPcmFB/H54W4MsGN8DVUxT6nfKgcdwpC6MIhaJZBm4zx/8sIv8lRyhoPYpOeXD7Mrhr9f91mUDevg55m1yGvPR+/6SHvFMeHh5PQF48P2+6ceUGEVklIteISC+hkJe3sB5W/Yo4EIAABCAAgU4SQCh0Mu00GgIQgAAE+hAo2gwReBCAAAQgAAEIQAACIoJQoBtAAAIQgAAEJhPot8YfVhCAAAQgAAEIQAAC4wQQCnQFCEAAAhCAwK8IFJ2CACsIQAACEIAABCAAAYQCfQACEIAABCAAAQhAAAIQgAAEIACBYQkwQ2FYctwHAQhAAAIQgAAEIAABCEAAAhDoMAGEQoeTT9MhAAEIQAACEIAABCAAAQhAAALDEkAoDEuO+yAAAQhAAAIQgAAEIAABCEAAAh0mgFDocPJpOgQgAAEIQAACEIAABCAAAQhAYFgCCIVhyXEfBCAAAQhAAAIQgAAEIAABCECgwwQQCh1OPk2HAAQgAAEIQAACEIAABCAAAQgMSwChMCw57oMABCAAAQhAAAIQgAAEIAABCHSYAEKhw8mn6RCAAAQgAAEIQAACEIAABCAAgWEJIBSGJcd9EIAABCAAAQhAAAIQgAAEIACBDhNAKHQ4+TQdAhCAAAQgAAEIQAACEIAABCAwLAGEwrDkuA8CEIAABCAAAQhAAAIQgAAEINBhAgiFDiefpkMAAhCAAAQgAAEIQAACEIAABIYlgFAYlhz3QQACEIAABCAAAQhAAAIQgAAEOkwAodDh5NN0CEAAAhCAAAQgAAEIQAACEIDAsAQQCsOS4z4IQAACEIAABCAAAQhAAAIQgECHCSAUOpx8mg4BCEAAAhCAAAQgAAEIQAACEBiWAEJhWHLcBwEIQAACEIAABCAAAQhAAAIQ6DABhEKHk0/TIQABCEAAAhCAAAQgAAEIQAACwxJAKAxLjvsgAAEIQAACEIAABCAAAQhAAAIdJoBQ6HDyaToEIAABCEAAAhCAAAQgAAEIQGBYAgiFYclxHwQgAAEIQAACEIAABCAAAQhAoMMEEAodTj5NhwAEIAABCEAAAhCAAAQgAAEIDEsAoTAsOe6DAAQgAAEIQAACEIAABCAAAQh0mABCocPJp+kQgAAEIAABCEAAAhCAAAQgAIFhCSAUhiXHfRCAAAQgAAEIQAACEIAABCAAgQ4TQCh0OPk0HQIQgAAEIAABCEAAAhCAAAQgMCwBhMKw5LgPAhCAAAQgAAEIQAACEIAABCDQYQIIhQ4nn6ZDAAIQgAAEIAABCEAAAhCAAASGJYBQGJYc90EAAhCAAAQgAAEIQAACEIAABDpMAKHQ4eTTdAhAAAIQgAAEIAABCEAAAhCAwLAEEArDkuM+CEAAAhCAAAQgAAEIQAACEIBAhwkgFDqcfJoOAQhAAAIQgAAEIAABCEAAAhAYlgBCYVhy3AcBCEAAAhCAAAQgAAEIQAACEOgwAYRCh5NP0yEAAQhAAAIQgAAEIAABCEAAAsMSQCgMS477IAABCEAAAhCAAAQgAAEIQAACHSaAUOhw8mk6BCAAAQhAAAIQgAAEIAABCEBgWAIIhWHJcR8EIAABCEAAAhCAAAQgAAEIQKDDBBAKHU4+TYcABCAAAQhAAAIQgAAEIAABCAxLAKEwLDnugwAEIAABCEAAAhCAAAQgAAEIdJgAQqHDyafpEIAABCAAAQhAAAIQgAAEIACBYQkgFIYlx30QgAAEIAABCEAAAhCAAAQgAIEOE0AodDj5NB0CEIAABCAAAQhAAAIQgAAEIDAsAYTCsOS4DwIQgAAEIAABCEAAAhCAAAQg0GECCIUOJ5+mQwACEIAABCAAAQhAAAIQgAAEhiWAUBiWHPdBAAIQgAAEIAABCEAAAhCAAAQ6TACh0OHk03QIQAACEIAABCAAAQhAAAIQgMCwBBAKw5LjPghAAAIQgAAEIAABCEAAAhCAQIcJIBQ6nHyaDgEIQAACEIAABCAAAQhAAAIQGJYAQmFYctwHAQhAAAIQgAAEIAABCEAAAhDoMAGEQoeTT9MhAAEIQAACEIAABCAAAQhAAALDEkAoDEuO+yAAAQhAAAIQgAAEIAABCEAAAh0mgFDocPJpOgQgAAEIQAACEIAABCAAAQhAYFgCCIVhyXEfBCAAAQhAAAIQgAAEIAABCECgwwQQCh1OPk2HAAQgAAEIQAACEIAABCAAAQgMSwChMCw57oMABCAAAQhAAAIQgAAEIAABCHSYAEKhw8mn6RCAAAQgAAEIQAACEIAABCAAgWEJIBSGJcd9EIAABCAAAQhAAAIQgAAEIACBDhNAKHQ4+TQdAhCAAAQgAAEIQAACEIAABCAwLAGEwrDkuA8CEIAABEYhMF9E1onIlSLyxCiBuBcCEIAABCAAAQhAoB4CCIV6uHe9VB1AXCQia0TkWANgMLBpQBKoQuMIjInIHeO1qmLQHz53KhdOq+h9ocrYimiuiNwoIteIyMONyyQVggAEIAABCEAAAhURQChUBJaw2QfsnSIyb5zFQyKydPzDti8Upo8PWnZ4g5fY+HSwoT/XBwVPE5FtIrLS+73fjtj1jFWea/fhHCZWdejF3Co+cUYnoAP+5SJy5ng/2D96yEkRqhIKecISoWCcPMJBAAIQgAAEIAABJYBQoB9UQUAHCveKyAIRcYMQFQwrRGSDiFzqzVCoQigMMgNCv4W9SUQ25nyz6AbW+4Jvaq/z5EgV/EaJOUjbXTnh4B6hMEoG0rjX9QEVfSoU5lQgl6qaGTTMMzBq1pihMCpB7ocABCAAAQhAoJUEEAqtTFujK503CA8rXPUH/kHi97s2ry1uGnidMyr6dYBB2t5LKMToYMxQiEF5+DJ0gKySbbWIzPb+2+114GYv3CUi94wXs8fbD8E9O/r6Zd4sn2WenAuFQth3w1lO/r167e1e81RePpAzo8gnsN1bTpE3+8gXoHnt8+8PyRYJBe3vm8dvcrOc9K86i+sjnnh17y86W0plrPv7ovF7/To4GfolEdk0/rqbBTZ85rkTAhCAAAQgAAEIDEAAoTAALC4tRaDog7UG8QcO+nddVuDPAuj3IbrfB30Xy1+i0G8QUCQ/+gkF/cDvBjD/TUSuFhH90O8GJW6WhoPmD4aKBgm6br3fAEJnVOgARa9xg5NHcwZTru1uFkgYM/x9mOD13rfSYXvyBmfh4NEfoIWx+wmFcCDp6qF1uDmYHRL2t7yBppslo6/pN+36o4M7v32lOneHLnKstJ/nPQeuP/j9wF9W4D+Lrh+4vLoBdD+hEM5c0jpcKyK3iMg5IrLQ65taV12a4fZ5yJNqee85/pKecFaV+7vrI0XvFf3e97Rs/XH7UThO/1lE/ouIhPVwG1W6e3x56T83Ve9x0aHuTlMhAAEIQAACEBiWAEJhWHLc14tAmWnM/YRC3gwA/0N0mQ/6Zb+l97+FzdtlvteSBzd4eXZ8EP/2YJAbDnzDbx17DaaL2p43gAjbGv5d26DfXt42vqSjqAyX15C5P5B3XPRa3VjTDR59DkX9oB+DLSKydnznf38QeiBnvw2/vbqUxh9Y9pINvtzhSX4pAX+5gy9j/I1U8/Lr83aCyxeFWlLYr/xTHvxcvmWAEyDC57hIKJzRYwPFfnXTuvuSJaRWRqS6e5wU1WcnbGdRHfy2OuHgZjPQlyEAAQhAAAIQgEB0AgiF6MiTL7BoIOk+mLvBiRuMuoFHr4GKm36t306GR82FH/TLCoWiafd506LzpnX3GzS5hPt11HK1neHO+UVtzxtAlBlMhZ1Oyz8YfGOq1/ibUvps8jgVDR777U0RDiz7PRTh4LaXjNqVM9PFlePaWrZfJP+QFjQwnCHiLvc3JK1aKPj7rIQnwRQ9l0VCoZes8J/RvPb16z/9hEI4I0l5hrOH9NlzwswJgnBWkMuDew9CKHT9SaX9bSXgL4Fybeg3m7KqdhZ9BqqqXOJCAAKJEUAoJJbQBjQnb1p6WK1+MxSKPkT3Egr+t6dlBo7hrIE8dEXTnHu9nvdhQeP7U+zdNeEgTTezDH/6DSDyvoUPj+TMY+p/S5/3ocL9bmuPgbovDPK+jS7i2++DTLhsQXn40+bd8Xz6e/ffeUs+HEfX1jL9ogGPUO1VyMtN2NfzBtz+s5/XJ8LNPvsteeg3QyE8saGMVPNzP8oMhV7H3fYSCnkbnPozFFSWuLq5JUPuON0iOVv0jNXekagABCCQS6DXRsjhbMd++Cyef4QCHRQCEDAhgFAwwUgQj0CZTQuLhEI4A8EHXOabwzIDx6IP61rmKEJB7w+PoczrKH498mSJf0/eB4gioRCuW9d4sWYo6JrxXtOxe32QCYVU3vR7d6/OPHCnDxTlSttdpl90/WHu9yE1XJKg8ivcY8DtB+DyES6D8ZfODLuHwqrxJLnnK5zxE+6pEOZe/677toR7F/SrW1H/KRIKbhZTuFxIhYI/IyRvr5VeG8BaDCi63t9pPwTqINBP2pY9rtni+Uco1JF9yoRAggQQCgkmtQFNct8wh8dGumUL7/KOjXQf7t0H7iIhUVYo+Gvp85CEg+q8a4oGqb1eLzNLw5Xnt0d/p4PwQQYQeUKh3z4CbvByQ84mce6bUScdnBTpNcgPB495G2sOIxR8oRRulqd18mdc+H0sbyDp5xWhUPzm0E+0+XLK9RGdPfPZ8bB5G3U+PL55qNsQNDxJodceCuFAW4twg+1wCcESEfmP3r4b/uuuTuESijCGP1PI9bG8pVX9ZijoiQ3zPMThaQ76mv5Oj85Vzvr/2s48+eLClF0u4fa6KM4wV0AAAnUT6CfU/fedXhs46wyucDZjuPmtey/qt/lwP6HA5sh19xLKh0CLCCAUWpSsllU1nGbvf2DvN0NBm9nvQ3TeVOhwoJg3oPDXYZfdQG1YoRAOel3qdEDk1vr7J1H4g6xBBxBhW3oNptwRezrA0tMpnvGEgv/BwX34CD9ohMsQ/A8pRadh5A128paF+GW7I/b0d/qzN+doPf19uA9Fv+USCAW7N5GiGT5Fz45dTdKIxDeFaeSRVkCgDIFez3u4N1G/DZXzZijo73ptatzr32Gtbzibsl8cNkcuk2GugUDHCCAUOpZwmpsRYGDZ7o7AYLX+/CEU7HJgMXXZrjZEggAEqiZQRijo7K7wx59ZWeZ9I2/JoB+zrMhkc+SqewTxIdByAgiFlieQ6g9MoOgf2IEDckN0AmVnmESvWIcKRCjYJbuIpV1JRIIABJpAoOySh34bKvcSCv1m6eUJCv1d3n5PbI7chJ5CHSDQEgIIhZYkimpCAAITBJhhQmeAAAQgAIG2EuglFPzfF22onCcUymxq7DNjc+S29iDqDYGGEUAoNCwhVAcCEIAABCAAAQhAIFkCvY5qViHg9gUKZ+KFGyrnbWAdznbK29S4rFBgc+Rkux8Ng4A9AYSCPVMiQgACEIAABCAAAQhAII9Av02J/ev9ZQd5Gyr7r7vNnf3YeZsah0LBbYDsfs/myPRZCEBgYAIIhYGRcQMEIAABCEAAAhCAAAQ6S4DNkTubehoOgZcSQCjQKyAAAQhAAAIQgAAEIACBsgTYHLksKa6DQAcIIBQ6kGSaCAEIQAACEIAABCAAASMCbI5sBJIwEEiBAEIhhSzSBghAAAIQgAAEIAABCEAAAhCAQGQCCIXIwCkOAhCAAAQgAAEIQAACEIAABCCQAgGEQgpZpA0QgAAEIAABCEAAAhCAAAQgAIHIBBAKkYFTHAQgAAEIQAACEIAABCAAAQhAIAUCCIUUskgbIAABCEAAAhCAAAQgAAEIQAACkQkgFCIDpzgIQAACEIAABCAAAQhAAAIQgEAKBBAKKWSRNkAAAhCAAAQgAAEIQAACEIAABCITQChEBk5xEIAABCAAAQhAAAIQgAAEIACBFAggFFLIIm2AAAQgAAEIQAACEIAABCAAAQhEJoBQiAyc4iAAAQhAAAIQgAAEIAABCEAAAikQQCikkEXaAAEIQAACEIAABCAAAQhAAAIQiEwAoRAZOMVBAAIQgAAEIAABCEAAAhCAAARSIIBQSCGLtAECEIAABCAAAQhAAAIQgAAEIBCZAEIhMnCKgwAEIAABCEAAAhCAAAQgAAEIpEAAoZBCFmkDBCAAAQhAAAIQgAAEIAABCEAgMgGEQmTgFAcBCEAAAhCAAAQgAAEIQAACEEiBAEIhhSzSBghAAAIQgAAEIAABCEAAAhCAQGQCCIXIwCkOAhCAAAQgAAEIQAACEIAABCCQAgGEQgpZpA0QgAAEIAABCEAAAhCAAAQgAIHIBBAKkYFTHAQgAAEIQAACEIAABCAAAQhAIAUCCIUUskgbIAABCEAAAhCAAAQgAAEIQAACkQkgFCIDpzgIQAACEIAABCAAAQhAAAIQgEAKBBAKKWSRNkAAAhCAAAQgAAEIQAACEIAABCITQChEBk5xEIAABCAAAQhAAAIQgAAEIACBFAggFFLIIm2AAAQg8CsC80XkXg/IHhG5UkSeaBGkuSJyjojc3aPORa+3qKkmVdX83j4eaZmI3GESNT/IOhE5TUTWiMgxo3Ji1t+oyoRpMQHtw5uD+i8Qkf0NadPY+DO8yKtP1c91Q5pONSAAgTYSQCi0MWvUGQIQgEA+AZUJ+mHZCQT9YHqTiGwUkYdbAM2XIXkfoIteb0ETK6ui5lx/qpQJGl/7l/5cb9ySWPU3rjbhWkpA+/HecYngBvA7Ijw/Rbimici1InKLJ4G1rgcbULeiuvN6MQGV4TtFZF5waR1Cyxe5D4nI0pZ8TiimzBXRCSAUoiOnQAhAAAKVEHAfinWg53/Tph9g9EPqg4alXiIi9xh+Qx1WrWhwWfS6YVNbE6rtTNpe/9Z0FCqaEfCFgv5d3ydVvK4ecDaX9Xuh1mOxiGzz8qTv3xfnzNiyLpuuUT0Bze+NInKNN3h3onz9AKJW3y8vGmGmmN6/3PvyIa/fVU+DEpIhgFBIJpU0BAIQ6DiBcHZCVTj0g8cKEdmAUKgK8VBx2z4gb3v9h0oaN9VGIBQKvYRsvwpW8V5YVmxUUXZtyehQwXlCQZuv/37fPMAsgVGFQlUzzTqUSprqE0Ao0B8gAAEIpEFAP2DMKfENh79+eLv3DYeb/qjfhF0mIitFxJ8GmbeuV8m5qZrufnfP7PG9HMKplL3K97NQNLjs9bo/hdP/tqds3drcE4qYadv6sddvQfVbUc27/+OWnpRZbuLzH3TvjqL6h1OF/b7r10374xFvWrG/dKbL/aPNfbuKuodCwfV/XfagM7z69bei98J+95Zpi+unecu+isp28Yve5/u9TxfVv+i9QuvQ61kr0/6Ur+klFBzTfd7SFp+h+7f2gZz3af+90M97v2UMGvu6PgIj7GdhrDyh4UsKt9zySyKyaTyhuqRC35t1WZ7bH8T/dzos029Xyn0iibYhFJJII42AAAQgkH2AKxIK4bcS4T36usoEt5YyL2bRN2O6Wd8zInKKiGwd//DjPqQXle/SWDS4zHs9rKsOMhcGgqVf3drehYqYFbEPB1jKanfOmtp+MsefgltUn5B3v+vz9gLJ+4b5UhG5dTzwBeMzaNzeIV3vH23v39b17yUUdED3tZy9Z8LrtT5574Vl+mqZtviD9jyx0O99uOhZ1/J7vRceKNH2oveKMs9aGQYpXtNLKDjhq/+vyxbDf7/CJQp5A/rwPbRoA10nH0JZkLenSCggyggFt5+PXqubQrs+fdj7d9nFFfiQAAAgAElEQVT9O+NEg7+PCbMoWvQEIBRalCyqCgEIQKAPgSKhkPcBVP+B128PbhsfOIYfFPMG5UVCodeHgDLlDysU8jYy0w9FW0RkbbC5mfvAllpn6jcgL8M+zH3eAEqZ5ZVjsfnnMALiULBfyFUisms83/76cvpHar199PYUzVDIE15hfyt6L/Tfz8J7y7YgbxDWS2b0+n34Ph8OXovqos+mX/9+7xVln7WiMlN9vaxQCNsfLoXJG9CH9+i/37pPQr8TeXxx5WYL5C2fDGdQlBUK/p5O/dqeV2bZ5T+p9pVWtQuh0Kp0UVkIQAACPQkUfXjIez2c5mshFHp9s12m/GGFQq9pwOG0+151S6Fb9RuQl2EfTmPudUxdL6EQyptBmRYJhfA4VI0f7oyu15wpIvcHx47SPwbNRvrX581w8U/EKdPfegmFMvf2IhzOrNHr8uRov7LDQWT4Pq8x+70XFtW/33tF2Wct/R6W38KySx7ylpX4/57lDejz2JddNuDv4fC2Hhs++qeNDCMU+u3zlNfnlOCgS+e62q9qbzdCofYUUAEIQAACJgT6bfakBeiUwnAzxSpmKPT6oFrmW/JhhULet2J5ULsmFPQDpv7Rf+uLcl+WzSBCQct+tuTmnb3i9qp/+K2p5lv7gQ6mfjK+f4dOs3W/D4/i61r/MHmTSShInjzV32m/0v1fwuclr7/lvafl/S7v3l4o83bbz3t/6yUUyr7PDvI+Hda/33tF2ffihLrSQE3p9e90+PtwuULRDIW8mSxFXzL4Ffc3JdXfu2fBfw/VPXbcHg/DCIVBZygMBJaL6yWAUKiXP6VDAAIQsCSQ9yHE/2Dsf8Og5YbLJAadoaAxwuPM+n3YLCp/WKGQ1xb9gOSvqddryg6aLXMSK1begNxvbxH78BuiXt8M9ZpJEC51yRsY9WPRr/46wPO/dXWbxummYtOD4/R6Lf0Jf9+1/hGrH7alHP+9zvWnj4wvoQkHYr36mz94d++FKm7L9tU8Vnnr14uWnoXvw0XPer/3wjJtL3qvKPOstaWfWNczb1Dt+tcN3oaM4fup/l25u/0I9P/9Yx/DJQnu7y7Xx7yG5C1R8+Pppbr/gb+fQVheeCqFvn67iLhlE3mnpgy6h4I1e+JVSAChUCFcQkMAAhCogYD7h12Lzpvu6DZi0tf7nYSgr+8UkXkiEk5/z9vMyS9X7+21w3Sv8p0U0A8l/k+vXfrdNf7rfuxweqgft9/u1zWkbOQiQ/YuYCgFerF33+zrB0j3wTOcZl00DVrL9OOXnWrbK+/6e7/+Yey7ROSeHsse9F7dqT/86Wr/GLmDJRbA7we93qvK9re898Ky9+ZhzZvq3utZyivbxSx6n3fX5b0X9qu/njKgA9l+7xXhewHT1n+VaScP9N/VfjkIly8sEZH/6O0J5L/u+scZ3r/Zmlc92lnft/OOeA7rEeao6PUwx/pZwv3ovgm9jmEN29XvlAeNN8i/I4m9TbWrOQiFduWL2kIAAhCAAASsCeRtfpW3btu63Cri+ZsxVhGfmBDoMoGU3iu6nEfaDgFTAggFU5wEgwAEIAABCLSSQDgDoU2zOPxvdcONGluZDCoNgQYTaPN7RYOxUjUItJcAQqG9uaPmEIAABCAAAQhAAAIQgAAEIACB2gggFGpDT8EQgAAEIAABCEAAAhCAAAQgAIH2EkAotDd31BwCEIAABCAAAQhAAAIQgAAEIFAbAYRCbegpGAIQgAAEIAABCEAAAhCAAAQg0F4CCIX25o6aQwACEIAABCAAAQhAAAIQgAAEaiOAUKgNPQVDAAIQgAAEIAABCEAAAhCAAATaSwCh0N7cUXMIQAACEIAABCAAAQhAAAIQgEBtBBAKtaGnYAhAAAIQgAAEIAABCEAAAhCAQHsJIBTamztqDgEIQAACEIAABCAAAQhAAAIQqI0AQqE29BQMAQhAAAIQgAAEIAABCEAAAhBoLwGEQntzR80hAAEIQAACEIAABCAAAQhAAAK1EUAo1IaegiEAAQhAAAIQgAAEIAABCEAAAu0lgFBob+6oOQQgAAEIQAACEIAABCAAAQhAoDYCfYXC/Pnzv/Cd73znP0ydOvVYbTWkYAhAAAIdJ/D888+/quMITJv//PPPn+ACTp069RemwQk2MgHND3kZGWMtAaZOnfrvtRRMoRDoIIHXve51v/bYY49Nmzp16vEONj/JJj/33HNT3vSmNz12//33v7FNDewrFGbOnPn9bdu2nXHuuee2qU3UFQIQgEAyBA4dOiQf+9jH5JRTTkmmTXU35Mc//rHMmDFDpkyZIieccIJMnTq17ipR/jiBZ599Vp588kk5/fTTYdIiAs8//7zon7/4i79oTa1/+MMfys0335y9F/DTPgLPPPOMfOQjH+n0e8Xll18uW7ZskTlz5rQvgdQ4l8D3v/99Wbly5YtHjx59eZsQ9RUKY2NjB3bv3j33wgsvbFObqCsEIACBZAj88z//s/ze7/2efPe7302mTXU35Nd+7dfkgQcekFNPPbXuqlB+QOBb3/qWvOc975Gf/vSnsGkRgZ/85CdywQUXyGOPPdaaWn/nO9+RxYsXy6c//enW1JmK/oqAyqCPfvSjsnTp0s5iOf/88+XOO++U8847r7MMUmu4fuZ7xzve8cJTTz3Vqm86EAqp9UTaAwEIJEUAoWCfToSCPVOriAgFK5Jx47RVKFxxxRXy7W9/Oy4sSjMh8P73v1+WLFmCUEAomPSnpgRBKDQlE9QDAhCAQEIEEAr2yUQo2DO1iohQsCIZNw5CIS5vShNBKIgwQyG9JwGhkF5OaREEIACB2gkgFOxTgFCwZ2oVEaFgRTJuHIRCXN6UhlDQPoBQSO9JQCikl1NaBAEIQKB2AggF+xQgFOyZWkVEKFiRjBsHoRCXN6UhFBAKaT4FCIU080qrIAABCNRKAKFgjx+hYM/UKiJCwYpk3DgIhbi8KQ2hgFBI8ylAKKSZV1oFAQhAoFYCCAV7/AgFe6ZWEREKViTjxkEoxOVNaQgFhEKaTwFCIc280ioIQAACtRJAKNjjRyjYM7WKiFCwIhk3DkIhLm9KQyggFNJ8ChAKaeaVVkEAAhColQBCwR4/QsGeqVVEhIIVybhxEApxeVMaQgGhkOZTgFBIM6+0CgIQgECtBBAK9vgRCvZMrSIiFKxIxo2DUIjLm9IQCgiFNJ8ChEKaeaVVEIAABGolgFCwx49QsGdqFRGhYEUybhyEQlzelIZQQCik+RQgFNLMK62CAAQgUCsBhII9foSCPVOriAgFK5Jx4yAU4vKmNIQCQiHNpwChkGZeaRUEIACBWgkgFOzxIxTsmVpFRChYkYwbB6EQlzelIRQQCmk+BQiFNPNKqyAAAQjUSgChYI8foWDP1CoiQsGKZNw4CIW4vCkNoYBQSPMpQCikmVdaBQEIQKBWAggFe/wIBXumVhERClYk48ZBKMTlTWkIBYRCmk8BQiHNvNIqCEAAArUSQCjY40co2DO1iohQsCIZNw5CIS5vSkMoIBTSfAoQCmnmlVZBAAIQqJUAQsEeP0LBnqlVRISCFcm4cRAKcXlTGkIBoZDmU4BQSDOvtAoCEIBArQQQCvb4EQr2TK0iIhSsSMaNg1CIy5vSEAoIhTSfAoRCmnmlVRCAAARqJYBQsMePULBnahURoWBFMm4chEJc3pSGUEAopPkUIBTSzCutggAEIFArAYSCPX6Egj1Tq4gIBSuSceMgFOLypjSEAkIhzacAoZBmXmkVBCAAgVoJIBTs8SMU7JlaRUQoWJGMGwehEJc3pSEUEAppPgUIhTTzSqsgAAEI1EoAoWCPH6Fgz9QqIkLBimTcOAiFuLwpDaGAUEjzKUAopJlXWgUBCECgVgIIBXv8CAV7plYREQpWJOPGQSjE5U1pCAWEQppPAUIhzbzSKghAAAK1EkAo2ONHKNgztYqIULAiGTcOQiEub0pDKCAU0nwKEApp5pVWQQACEKiVAELBHj9CwZ6pVUSEghXJuHEQCnF5UxpCAaGQ5lOAUEgzr7QKAhCAQK0EEAr2+BEK9kytIiIUrEjGjYNQiMub0hAKCIU0nwKEQpp5pVUQgAAEaiWAULDHj1CwZ2oVEaFgRTJuHIRCXN6UhlBAKKT5FCAU0swrrYIABCBQKwGEgj1+hII9U6uICAUrknHjIBTi8qY0hAJCIc2nAKGQZl5pFQQgAIFaCSAU7PEjFOyZWkVEKFiRjBsHoRCXN6UhFBAKaT4FCIU080qrIAABCNRKAKFgjx+hYM/UKiJCwYpk3DgIhbi8KQ2hgFBI8ylAKKSZV1oFAQhAoFYCCAV7/AgFe6ZWEREKViTjxkEoxOVNaQgFhEKaTwFCIc280ioIQAACtRJAKNjjRyjYM7WK2EShcMcdd8iyZcte0sSVK1fKtm3bZNeuXROv33777XLllVda4cjiPPHEE9mfs88+2zSuZTCEgiVNYpUh8P73v1+WLFkiS5cuLXN5ktecf/75cuedd8p5552XZPu62CiEQhezTpshAAEIVEwAoWAPGKFgz9QqYhOFgrbt+uuvl4ULF8r8+fMnBvmrV6+WjRs3yty5c0Wlg/5YywQnM+69996Jsq1YW8ZBKFjSJFYZAggFEYRCmZ7SrmsQCu3KF7WFAAQg0AoCCAX7NCEU7JlaRWyLUND2Pvzww3Ls2DG54IILKhMKWo5KhTPPPBOhYNXJxuN85zvfkSuuuEK+/e1vG0cmXAwCCAWEQox+FrsMhEJs4pQHAQhAoAMEEAr2SUYo2DO1itgWoXD33XfLxRdfLNOmTcuaXtUMBYSCVc96aRyEQnVsY0RGKCAUYvSz2GUgFGITpzwIQAACHSCAULBPMkLBnqlVxDYIBZ2VsGPHDlm+fHlpoaCzGXSt90MPPZShcvsvOCGhSyrWr18/gdHfi8GfoeCuW7RoUSYxxsbGrNCPFIclDyPh4+YhCCAUEApDdJvG34JQaHyKqCAEIACB9hFAKNjnDKFgz9QqYpOFgj/gD4VAvxkKuqGiv9+CsvL3ZNi/f78cOnRoYv8FlQ8HDhyQSy65JMPqC4XwWivuo8ZBKIxKkPsHJYBQQCgM2mfacD1CoQ1Zoo4QgAAEWkYAoWCfMISCPVOriE0WCm5TxmFmKIR8QkmgMx70xAg3Y8G/3l2r0uHgwYOybt06K9xmcRAKZigJVJIAQgGhULKrtOoyhEKr0kVlIQABCLSDAELBPk8IBXumVhHbIBS0rYPuoaAzCxYsWDAJk39yg78kYvPmzZOkgTvp4brrrsvu37RpU654sMrBMHEQCsNQ455RCCAUEAqj9J+m3otQaGpmqBcEIACBFhNAKNgnD6Fgz9QqYluEQtjevCUPutRB/xw/flxuu+22SSKg38kNKh/27t07IRXC2Qz+a1bcR42DUBiVIPcPSgChgFAYtM+04XqEQhuyRB0hAAEItIwAQsE+YQgFe6ZWEVMSCrqEYfHixXLkyJFsE0e3pMHNRrjhhhvk2Weflccff1wuvfTSiQ0WVULccsstcu2112YzEUL5oPsvzJkzZ2LPBSv2o8RBKIxCj3uHIYBQQCgM02+afg9CoekZon4QgAAEWkgAoWCfNISCPVOriE0UCv4JDP4yBddmtyQhZOCfxODH0A0dL7vssuzYSY2neyMsW7Zs4vZ58+bJzp07Ze7cuZlM0Nfc72bPnp2JhD179oh/EoQV/2HjIBSGJcd9wxJAKCAUhu07Tb6vc0Ih/Ad01H/YXLxw5+QmJ71M3fSbiGuuuUZuvPHG7MMBPxCAAAQGIYBQGIRWuWsRCuU41XFVE4VCHRzaViZCoW0Za399EQrdEQo6lgqXjbW/B+e3oHNCQTHoTsdbt26VVatWmZyFnLdzcuwOo51W63HBBReULnqYe0oH50IIQKDTBBAK9ulHKNgztYqIULAiGTcOQiEub0oTQSi0QyiEG9KW+eJYv2T2T7RBKDT/iX9ZvyqOjY0d2L1799wLL7ww97IUhUK/jZJ6sRrmnuZ3DWoIAQg0gQBCwT4LCAV7plYREQpWJOPGQSjE5U1pCAXtA+eff77ceeedct555zW2S/ibzOq4cc2aNXLRRRf13QMGofCOF5566qmpjU1qTsVMhYLrKDNnzpR77rknWx/485//XO67775sDeA3vvEN0TWFH/vYx7KqhGsRe81Q0A2K3JpBXUf4hS98QT73uc9JXjlu3WF4j/u9dmxdy3j11VfLkiVLJupxzjnnTJThOPnLOHzDlreWsd89eTYur366cVNe3ebPn9+mPkVdIQABQwIIBUOY46EQCvZMrSIiFKxIxo2DUIjLm9IQCm0UClpnJwsWLlz4ks1qN27cKO985zvlwx/+8EQX17Gi7h2jSx70Rzez9feZcTHdPjT+a25mQ6/7mvgcseRhbCzLiw68dTfjLVu2yGc+8xlZsWJFtsPxL37xC/mrv/qrCSuVN7shTyiE17m/v/Wtb5W/+Zu/eUk5Woe3vOUtk5Zi+DGmT5+e2bHTTjstO5KpaDdljRdeox30wIEDcskll2Rt7jdDoVebNmzYkLHRfRU0nj5EunxEhUKvujWx41MnCECgWgIIBXu+CAV7plYREQpWJOPGQSjE5U1pCIU2CgV/hsK73vUuWb16dTb+cRvQapv0C+S8GQpLly6Vm2++WfRLVh0r6Y+O49wXxXrP2NjYxDhUT9V59NFHpdd9TX2GEAqeUNAdi/UIJBULy5cvlwceeCATCpp0f7+FcCCeN/j2v8l3yVf79IlPfEJefPHFl5Sj1+TNNnDG6owzzpgkG8oIBVeuvxGlP3thUKGgHJSRPjR+7Ne//vWTGIV1a2rnp14QgEB1BBAK9mwRCvZMrSIiFKxIxo2DUIjLm9IQCm0SCgsWLJjosps3b85EgP64I3B1zOh/0Vq05MFfRqHXOhGh/69jJycq9O/+Zo7+fU19hhAKFQoF/zxm1wHcoDwUF04o5N2jr4UzHsoIBSc1VI6oBBh1hgJCoamPMfWCQPMIIBTsc4JQsGdqFRGhYEUybhyEQlzelIZQaJNQ2Lt374RE8PuuW5JwxRVXZHtBbNq0SaZNm5Y7Q6GXGHBSwn1Ji1Co593BdA8FbUKvgb5b8qCDcp2u4qb533TTTRMnRPRaHqBLFNx97pqzzjpLHnvssdwZCrrkIe8ejaE//skUoVDQ+uuP1vHrX/96tnxClzf4MwrCzpt3j067cQLDzdTQh8TZs7Vr12bLNfQ6rYP+XY3d5z//+YlZHMxQqOehoFQINIkAQsE+GwgFe6ZWEREKViTjxkEoxOVNaQiFFISCjul0ZoL+6ExyJwXCmQThKQ/+6+GSB52xsG/fPnFLHpihEOfdYmih4E//16rqEgCdLaADeR18u00Pt2/fni15eP7550U/xD3++OOiv+u3oYaL59umvE0Z88rRe7UTPfvss5M2cnSbMrp6uyk3KgfWr1+f1d/NPtD1Ng899NDE79yaH623/nzlK1/JNoX0ZyyE9zi54k/z8Teh1IfD3eNY3H///dnmlb3qFqdLUAoEINAkAjGEQvh+7tqft6FsOEPLipUKVP1z9tlnW4XsGadJQiE8Uks3LnZrQV0DqmJeOeghCmiCUOj1PPhTdYdoWu4t+hnk8OHD2ecW96WDVeyYcRAKMWlTlhLg2Mj2nfKQ13P1/VY3WnTjNL3GX+7ub8roZjCEwsF/z/b/De0nIpr6FHVyycMgybA+YnKQsrkWAhCAQFsJxBAKykYHNrrrsjtVxp82qBsm+QNffw8ZC67uw0B48o9F7LwYTREK4TcrMZlXxXbUuE0QCr2eB39m4ajtdPf7m4tZxawjDkKhDurdLhOh0A6hUNRL27CvQVEbLF9HKBTQdB8Y877xskwEsSAAAQikRKAuoaAM1e6rDL7gggsmkIYbIFmx7re5rVUZLk4ThIL7BkaXuvlHA8dkbs3VIl5ThYK27cEHH8xmEahgK/tz9913Z0doDzP7YJR7y9bP6jqEghVJ4pQlgFBov1BwM8DdsvayuU/5OoRCytmlbRCAAARqIlCXUOg1mEEo2HSEcHZCv6hVMbdpiW2UJgqFvP2dyrQ6nG5b5h53zSj3DlKO1bUIBSuSv4oTLrf1Z3CFr+ld/utuby63V5eLGh63p3t8tXW5DUKh/ULB/qlpf0SEQvtzSAsgAAEINI5AHUKh3wCq1+DW3xdGIebNRnN71jjIvY7fddfl7SdgkaAmzFAIj8UaRiiMylzL7JcTC9aDxmiiUMg7DUr3O7rnnnvkrrvuesm+UHnHXYcDvl5LiIru9e9za4vz9nAalPuo1yMURiX40vv99wj/PVmv1P3KLrrooolN7Nx7wc0335zNeOolFPxStC8hFOzzFjPi+eefn52OcN5558UslrIqJIBQqBAuoSEAAQh0lUBMoaAb1LqfXsvT8oRCuPbfDVT9PRnC43L7Hb+bd7SuZf5TEAoWzItyYsm8bKwmCYV+z4OKGJUJ/obPBw8enHQ0WplZBv0Enb87uc9Pc79r1y656qqrsl8PsxSjbD7KXodQKEuq/HW9pGMvEeBf30souP525plnir9puJO7/uZ2TV+izAwFZiiUf5racyVCoT25oqYQgAAEWkMgplBwAmCYGQoh0HBPhKJvw9z1enpPODCzTlYKQiGPyaDMi3Jizb1MvCYJBfc85B3hHG5imrexWFVCQTneeuut2claevR0E/ZaQCiU6d2DXeMva/CXM5QRDXrSWd4mor7ACp//vJ3ztcbuxLXBal/91QgFhEL1vSx+CQiF+MwpEQIQgEDyBOoQCgp10D0UwuMPNUZ4aoM/RT88gs99M3bddddlOXXHQ1WR4CYIhUEG872+xR6VubLtl5Mq2BfFbKJQyBNsdQsFN7vkbW97mxw4cEAuueSSIrSVvo5QqA6vWwajswp0vwOdnZInXf33lGGEQt5xqVUclWpFCqGAULDqS02K0xmh4IypfovkzsoO3+wG3c1Y4+g6rvDs7bIJdnXS69u6uUzZtnIdBCDQLQJ1CYVelPMGt3nfxBad2pD3bZh+YNb1v1UfI9UEoaDMrrnmGrnxxhsnnRqgbdcf/+SHqpiHOa6ae5knt4lCwdVbP+von7PPPvslx6zGnqHgJMcpp5ySTV3XmQp1/iAUqqXv74avJeXtfTDIkgeddRBKzbZt/opQSFMohLK27JNVZkZY2Vh1XtcZoeC+0fA/CPX6YJSXkLwjsfSNcuvWrbJq1aqh/1HMm5JYZ4egbAhAAAIWBNogFMIPpu5b7xtuuEH0mzL99tSfoq1c8ja6c0JBX9cPFXPmzKlkum0ThIJr4+HDhydEeK8PRHkf9C2YF+XEov8OGqOpQkE/p2zYsEFWrFiRCaBBZygoB93EMZxJUGYPhX73Vr08qGz+EAplSZW/Tr8gW7x4cdbf/D1TZs+enb0v6lF7bjlC+Dm8aA8FvS98vxnk5JnyrajuSoRCu4VCOCPG7dmh40F//6WyPQihUJZUNde9rF/YsbGxA7t375574YUXTros3E1WO4V+cHSbE/WLmfetFUKhmuQSFQIQaD+BGELB3+k/XKbgCOZNh/VPafBj6AeDyy67TC6++OKJZQ/h/fPmzZu0oZ3umu9+5z4w79mzR/wyrLLZFKGg7em3CVqVzMOy9e9+TqxYDxqnCUIhj7u2w5068rWvfU38/qqv9TppwT0XIdsyy1V63euY5s1mGZS31fUIBSuSv4oTnuISHgupUkDfI/0f934Znhbi+t/999+fXa73+ns05G3KqNdV8f5rRQqh0H6h4Pqi3yeYofDP8o53vOOFp556aqrVsxIjztBCYffu3XL06NFsR2O1qPohQNe8OpPq3ujyPiC6hrk3KicU9PiTJUuWZC/7b2L+G6P/j7L/e/0Ae9ppp8m1114rgy65iAGaMiAAAQgMQyCGUBimXm2+p0lCoc0cq6h7E4RCFe2qImYTNmN07UIoVJHhwWPqYMyf9TR4hPbcgVBIWyi85S1vyY5H3b59e9Yp/WOk88aFeo07GefRRx/NXVLYht7duSUPmqz77rsvW6agRyfpPyaXX365nHHGGZOWL4SzD3rNUNBOo0JABYU/FVaT708zVGO7cePGrIw/+7M/m5h+OMgGV23oUNQRAhCAgBJAKNj3A4SCPVOriAiF/iR77fxvxX/YOAiFYclx37AEEArtFwo608v9uA1Ae81Q8JeH9dtX6IorrpBPfOITL9mfaNh+Fvu+zgmFI0eOyN69e7N1Lvrfuo5P13r5U1VdEsKprf46Wb0mlA6+UHjggQdEN4D0j63RjjRlyhT58Y9/nNkr/WEPhdhdnvIgAIEYBBAK9pQRCvZMrSIiFKxIxo2DUIjLm9JEEArtFwraj8NjSX2hEC4Nc9LB/d6fze6WCJ166qlDb/LfhOeqc0JBJcD3v//9bNmDHlukSyCcULjlllt6Lj0os4cCQqEJXZo6QAACTSCAULDPAkLBnqlVRISCFcm4cRAKcXlTGkJB+4AuFb/zzjvlvPPOa12X6LUhrRMK55xzjqxevTqbla7L6f1TTFxj/T389He65OGss84S/TK6raf+dVIoPPPMMxNH1/z5n/95JhR0yYPOGtDdZ/XYq/D8Zn8Toa9//euia2SmT58+aZmELxTCs3TdzrW6NOLzn//8xMkQ2qn27dvX2g7UuncCKgwBCEQhgFCwx4xQsGdqFRGhYEUybhyEQlzelIZQ6IJQWLt2rWzZsiUbJ/pL4/3+7wSEzpB3eyjosviqTomq+tnrjFBw6/d0GYKen62zFB5//PFsx2N35IdKgHBTRrVL+uPvWhvuKuuvn1m/fv3Exoz+Pf7yCf/3n/3sZ7Pdbv1jdKpOOvEhAAEIVE0AoWBPGKFgz9QqIkLBimTcOAiFuLwpDaGQulDQL6X9E3d0jKg/+oVyeKqUzkbQvf2cUHDjUL1W47TppzNCoU1JoRnzp7MAACAASURBVK4QgAAE2k4AoWCfQYSCPVOriAgFK5Jx4yAU4vKmNIRC24UCfTifAEKBngEBCEAAAuYEEArmSAWhYM/UKiJCwYpk3DgIhbi8KQ2hgFBI8ylAKKSZV1oFAQhAoFYCCAV7/AgFe6ZWEREKViTjxkEoxOVNaQgFhEKaTwFCIc280ioIQAACtRJAKNjjRyjYM7WKiFCwIhk3DkIhLm9KQyggFNJ8ChAKaeaVVkEAAhColQBCwR4/QsGeqVVEhIIVybhxEApxeVMaQgGhkOZTgFBIM6+0CgIQgECtBBAK9vgRCvZMrSIiFKxIxo2DUIjLm9IQCgiFNJ8ChEKaeaVVEIAABGolgFCwx49QsGdqFRGhYEUybhyEQlzelIZQQCik+RQgFNLMK62CAAQgUCsBhII9foSCPVOriAgFK5Jx4yAU4vKmNIQCQiHNpwChkGZeaRUEIACBWgkgFOzxIxTsmVpFRChYkYwbB6EQlzelIRQQCmk+BQiFNPNKqyAAAQjUSgChYI8foWDP1CoiQsGKZNw4CIW4vCkNoYBQSPMpQCikmVdaBQEIQKBWAggFe/wIBXumVhERClYk48ZBKMTlTWkIBYRCmk8BQiHNvNIqCEAAArUSQCjY40co2DO1iohQsCIZNw5CIS5vSkMoIBTSfAoQCmnmlVZBAAIQqJUAQsEeP0LBnqlVRISCFcm4cRAKcXlTGkIBoZDmU4BQSDOvtAoCEIBArQQQCvb4EQr2TK0iIhSsSMaNg1CIy5vSEAoIhTSfAoRCmnmlVRCAAARqJYBQsMePULBnahURoWBFMm4chEJc3pSGUEAopPkUIBTSzCutggAEIFArAYSCPX6Egj1Tq4gIBSuSceMgFOLypjSEAkIhzacAoZBmXmkVBCAAgVoJIBTs8SMU7JlaRUQoWJGMGwehEJc3pSEUEAppPgUIhTTzSqsgAAEI1EoAoWCPH6Fgz9QqIkLBimTcOAiFuLwpDaGAUEjzKUAopJlXWgUBCECgVgIIBXv8CAV7plYREQpWJOPGQSjE5U1pCAWEQppPAUIhzbzSKghAAAK1EkAo2ONHKNgztYqIULAiGTcOQiEub0pDKCAU0nwKEApp5pVWQQACEKiVAELBHj9CwZ6pVUSEghXJuHEQCnF5UxpCAaGQ5lOAUEgzr7QKAhCAQK0EEAr2+BEK9kytIiIUrEjGjYNQiMub0hAKCIU0nwKEQpp5pVUQgAAEaiWAULDHj1CwZ2oVEaFgRTJuHIRCXN6UhlBAKKT5FCAU0swrrYIABCBQKwGEgj1+hII9U6uICAUrknHjIBTi8qY0hAJCIc2nAKGQZl5pFQQgAIFaCSAU7PEjFOyZWkVEKFiRjBsHoRCXN6UhFBAKaT4FCIU080qrIAABCNRKAKFgjx+hYM/UKiJCwYpk3DgIhbi8KQ2hgFBI8ylAKKSZV1oFAQhAoFYCCAV7/AgFe6ZWEREKViTjxkEoxOVNaQgFhEKaTwFCIc280ioIQAACtRJAKNjjRyjYM7WKiFCwIhk3DkIhLm9KQyggFNJ8ChAKaeaVVkEAAhColQBCwR4/QsGeqVVEhIIVybhxEApxeVMaQgGhkOZTgFBIM6+0CgIQgECtBBAK9vgRCvZMrSIiFKxIxo2DUIjLm9IQCgiFNJ8ChEKaeaVVEIAABGolgFCwx49QsGdqFRGhYEUybhyEQlzelIZQQCik+RQgFNLMK62CAAQgUCsBhII9foSCPVOriAgFK5Jx4yAU4vKmNIQCQiHNpwChkGZeaRUEIACBWgkgFOzxIxTsmVpFRChYkYwbB6EQlzelIRQQCmk+BQiFNPNKqyAAAQjUSgChYI8foWDP1CoiQsGKZNw4CIW4vCkNoYBQSPMpQCikmVdaBQEIQKBWAggFe/wIBXumVhERClYk48ZBKMTlTWkIBYRCmk8BQiHNvNIqCEAAArUSQCjY40co2DO1iohQsCIZNw5CIS5vSkMoIBTSfAoQCmnmlVZBAAIQqJUAQsEeP0LBnqlVRISCFcm4cRAKcXlTGkIBoZDmU4BQSDOvtAoCEIBArQQQCvb4EQr2TK0iIhSsSMaNg1CIy5vSEAoIhTSfAoRCmnmlVRCAAARqJYBQsMePULBnahURoWBFMm4chEJc3pSGUEAopPkUIBTSzCutggAEIFArAYSCPX6Egj1Tq4gIBSuSceMgFOLypjSEAkIhzacAoZBmXmkVBCAAgVoJIBTs8SMU7JlaRUQoWJGMGwehEJc3pSEUEAppPgUIhTTzSqsgAAEI1EoAoWCPH6Fgz9QqIkLBimTcOAiFuLwpDaGAUEjzKUAopJlXWgUBCECgVgIIBXv8CAV7plYREQpWJOPGQSjE5U1pCAWEQppPAUIhzbzSKghAAAK1EkAo2ONHKNgztYqIULAiGTcOQiEub0pDKCAU0nwKkhQKJ5544g8+8IEPnP6GN7whzazRKghAAAINJ/D444/LV77yFXnkkUcaXtN2VO+nP/2pnHPOOfLd735XTj311HZUukO1VKHw7ne/W44cOdKhVre/qSoU3vzmN8snP/nJxjfmH/7hH7I6Pv3006If3j/+8Y83vs5U8KUEvvjFL8pv/MZvyLx58zqLZ+vWrfL7v//7/FuWUA/Qz3w333zz8WeffXZKm5r1sn6VPfnkky9/5pln3iEiz7epUdQVAhCAQCoEXnjhhV8fGxv73WPHjvV9v06lvVW34/jx4zJ79mw5evSoTJnSqn+vq0bTiPi/+MUv5MQTT5SnnnqqEfWhEuUI6HN1xhlnvHDw4ME/LXdHbVdNe/HFFz+8evVqV4EpvA/UlouRCv7qV7+qov2fXvGKV+wdKVCLb54zZ84Hvv/978+aMmXK8RY3g6p7BF588cWX/fqv//pPv/vd776+TWD4gNqmbFFXCECgiwTe/PrXv/7/+eY3vzmji423bvPGjRvlTW96U/atDj/NI/C9731Pli5dms0g4ac9BJ544gn5zd/8zWf//d//venvU2MzZsz44dGjR1/VHrrUNI/AZZdd9sKuXbs+JSL/W1cJzZw580d//dd//Xr9N42fNAj867/+q7znPe95/Omnnz6lTS1CKLQpW9QVAhDoIoE3v+ENb7jv0UcfndnFxlu3Wb+ZPPfcc2XVqlXWoYlnQOChhx6S3/md3zn+5JNP8vnEgGesELqU6I1vfOPTx44da/r7FEIhVqeouJz3ve99T3/5y1/WN/LbKy6qseFnzZr1g/3795+u/6bxkwaBf/mXf1E5+9hTTz31a21qEf9gtylb1BUCEOgiAYSCYdYRCoYwKwiFUKgAaoSQCIUIkCliEgGEgghCIb2HAqGQXk5pEQQgAIEmEEAoGGYBoWAIs4JQCIUKoEYIiVCIAJkiEApBH0AopPdQIBTSyyktggAEINAEAggFwywgFAxhVhAKoVAB1AghEQoRIFMEQgGhkPxTgFBIPsU0EAIQgEAtBBAKhtgRCoYwKwiFUKgAaoSQCIUIkCkCoYBQSP4pQCgkn2IaCAEIQKAWAggFQ+wIBUOYFYRCKFQANUJIhEIEyBSBUEAoJP8UIBSSTzENhAAEIFALAYSCIXaEgiHMCkIhFCqAGiEkQiECZIpAKCAUkn8KEArJp5gGQgACEKiFAELBEDtCwRBmBaEQChVAjRASoRABMkUgFBAKyT8FCIXkU0wDIQABCNRCAKFgiB2hYAizglAIhQqgRgiJUIgAmSIQCgiF5J8ChELyKaaBEIAABGohgFAwxI5QMIRZQSiEQgVQI4REKESATBEIBYRC8k8BQiH5FNNACEAAArUQQCgYYkcoGMKsIBRCoQKoEUIiFCJApgiEAkIh+acAoZB8imkgBCAAgVoIIBQMsSMUDGFWEAqhUAHUCCERChEgUwRCAaGQ/FOAUEg+xTQQAhCAQC0EEAqG2BEKhjArCIVQqABqhJAIhQiQKQKhgFBI/ilAKCSfYhoIAQhAoBYCCAVD7AgFQ5gVhEIoVAA1QkiEQgTIFIFQQCgk/xQgFJJPMQ2EAAQgUAsBhIIhdoSCIcwKQiEUKoAaISRCIQJkikAoIBSSfwoQCsmnmAZCAAIQqIUAQsEQO0LBEGYFoRAKFUCNEBKhEAEyRSAUEArJPwUIheRTTAMhAAEI1EIAoWCIHaFgCLOCUAiFCqBGCIlQiACZIhAKCIXknwKEQvIppoEQgAAEaiGAUDDE3nWhcP3118vhw4dl27ZtMm3aNEOyNqEQCjYcY0dBKMQmTnnve9/7nv7yl7+8SkRu7yqNWbNm/WD//v2nn3vuuV1FkFy7EQrJpZQGQQACEGgEAYSCYRoQCtdnNNetW2dI1S4UQuFXLJsuf/ysIxTsngEilSOAUBBBKJTrK226CqHQpmxRVwhAAALtIYBQMMxV6kLh7rvvlosvvriRsw/KpBGhMFkoNFn+IBTK9GiuqYoAQgGhUFXfqjMuQqFO+pQNAQhAIF0CCAXD3KYsFB5++GG57bbbZNOmTQgFwz5TZai2CyDHhhkKVfYSYucRQCggFFJ8MhAKKWaVNkEAAhConwBCwTAHVQoFnaK+fv16mTdvnvzlX/5lVusLLrhA9Pd33XWX7Ny5U+bOnSv79++XBQsWyO233y5XXnnlROvuuOMOWbZsWfb3zZs3v2RZgovvbnD3P/HEE1mcPXv2TCJ17733yvz587PfuTL1v8Ny3U1+/JUrV07ss+Dqdc8992Tt2L59e9ZG1x7D9EiXZiikIIAQCpa9n1iDEEAoIBQG6S9tuRah0JZMUU8IQAAC7SKAUDDMV1VCQQfjc+bMyQb2x44dkzVr1shFF100IQx0E8TFixdnQsEN8A8dOjTxug7aDx48OCERVADs3bt30t/963UweuDAAbnkkksm6JQZoGo5+uOLDP271l9/3N4KYX1CKRK+bpWimEKhqQKoLfLHzzkzFKyeAOKUJYBQQCiU7Sttug6h0KZsUVcIQAAC7SGAUDDMVRVCQQfyGzdulJtuuknGxsZyhUE/oaACYuvWrbJq1aqJ+3XWwdq1a2XLli3Z73SQuWPHjr6nMwwrFPLu0zpt2LBBVqxYkUkQHXwvXLhw0owHX3hYpSiWUGiDAGq6/EEoWPV64gxDAKGAUBim3zT9HoRC0zNE/SAAAQi0kwBCwTBvVQmFcO8CFQD+jIJ+QqHXkoVFixaJDiqdpNCB/9KlS7NlAXlLIoYVCnmyws2yWL58eSYRUhIKbRFAeUKhSfIHoWD4xkSogQkgFBAKA3eaFtyAUGhBkqgiBCAAgRYSQCgYJq2JQiFvhkJRk8MlEXr9sEKhSYPUGDMU8trbRAGUJxSaJH8QCkVPKa9XSQChgFCosn/VFRuhUBd5yoUABCCQNgGEgmF+qxAK4bf5eXso+N/wuxkJ+u2/28sg3JNAr9m1a5dcddVVWetvvfVWufTSSyctibjlllvk2muvnTjRwR8o6z26iaK/x4L+rt80ercHhLvO39MhtRkKo8woiSWAmKFg+OD/KtTYjBkzfnj06NFXVRKdoNEIIBQQCtE6W8SCEAoRYVMUBCAAgQ4RQCgYJrsKoaDV85ct6AkIuh/CjBkzJoSBv1xBlzJcffXVsmTJkkknLvinLITLHfwTILS8Xqcs+BsN+qcw+Bv9OZz+KRD6O798f0mFK9uVqde6pRe9TowYNmUxZii0RQA1Xf74OWZTxmF7PPcNSwChgFAYtu80+T6EQpOzQ90gAAEItJdA5UIhHKw6VP7Rge53eacLWKDVAbn+Ofvssy3C9YxRlVAICwyn0FfaqISCxxAKTRdAbZE/CIWEHrwWNgWhgFBoYbctrDJCoRARF0AAAhCAwBAEKhcKWqdwSrsO7nXwracX6C7/ZY6yG6Jt2S1OaITfmA8br999MYRClayqYNKkmLGEAgLINuvMULDlSbRiAggFhEJxL2nfFQiF9uWMGkMAAhBoA4FahIKC0dkIOj38ggsumODUaxr2qCA17plnnjlxLOGo8XrdH0MoVFX3LsStQygggEbvWQiF0RkSYTACCAWEwmA9ph1XIxTakSdqCQEIQKBtBGoRCnfffbdcfPHFExv+OWgIhbZ1n3bVtw6h0C5CzawtQqGZeUm5VggFhEKK/RuhkGJWaRMEIACB+glEFwo6K2HHjh2ipxBMmzZtEoFeQsHfdFBvyNt/wd/0T6/xN/TzZyi468KNCS1SwQwFC4rVxUAoVMe2ysgIhSrpEjuPAEIBoZDik4FQSDGrtAkCEIBA/QSiCYX169dPtDZPCOiLeUIh3G9Br8s7ZvDQoUOTTj04cODAxLGGvlCockNDhEL9HbpfDRAKzc5Pr9ohFNqZtzbXGqGAUGhz/+1Vd4RCilmlTRCAAATqJxBNKCxcuDDbw2CYGQohpnBPBJUEOuth27ZtL5n14ESF7qGg0uHgwYOybt26SsgjFCrBahYUoWCGMmoghEJU3BQmIggFhEKKDwJCIcWs0iYIQAAC9ROILhS0yYPuoVDmqDt/WcTmzZsnSQN30sN1112XEd+0aVOueBg1HQiFUQlWez9CoVq+VUVHKFRFlri9CCAUEAopPh0IhRSzSpsgAAEI1E+gFqHQq9l5Sx5UFNx2222TJEDRqQ0qIPbu3TshFcIlD/5rlilAKFjStI+FULBnGiMiQiEGZcrwCSAUEAopPhEIhRSzSpsgAAEI1E+g8UIhXM7gZiLccMMN8uyzz2b7JNx6661y6aWXytjYWEZU91245ZZb5Nprr81mIoQCQvdgmDNnzsSeC1Zp6LpQUK6HDx/uufTEivOwcRAKw5Kr9z6EQr38u1g6QgGhkGK/RyikmFXaBAEIQKB+ApULBf/0hXvvvTfbRyH8cUsS/N/7pzT4MXRDx8suuyw7dtLFC++fN2+e7Ny5U+bOnZvJhGXLlon73ezZszORsGfPnkknQVikomqh4C/98NtoUXeLGJon/alqj4pR69g1odB0wVM2nwiFsqS4zooAQgGhYNWXmhQHodCkbFAXCEAAAukQqFwopIOquCVVCoVw6UdVsyz6tbLX3hfFZJpxRReFQpMFT9legVAoS4rrrAggFBAKVn2pSXEQCk3KBnWBAAQgkA4BhIJhLqsWCrt375Y1a9YY1rh8qLy9LMrf3YwrUxMKowieUe6NnU2EQmzilIdQQCik+BQgFFLMKm2CAAQgUD8BhIJhDqoQCv7pFX5V3XIPnalw1113TSzxcMsi/CUjep+/LGTRokXZ33XPCff7e+65J4uzffv2ieUhumRE96NwS0Tyytff+UsxwnLdPeGyFXfEZ1H5humRlITCKIJnlHst81E2FkKhLCmusyKAUEAoWPWlJsVBKDQpG9QFAhCAQDoEEAqGuaxCKLjq6SCw1wwFHZwvXrw42zPCDfAPHTo0semkDtr37ds3sVlieJpGKCX09YMHD07aC6HMIDTvlA6tT7i3Qhi/TPkWaWqSUPAFj3/MaZFgGUXwFN3riyEVVrrfyNKlSzMR00sUWeSlKAZCoYgQr1sTQCggFKz7VBPiIRSakAXqAAEIQCA9AggFw5w2USjoIFLrtXHjxgnhEDZZB/QLFy6c2DAzPHZTrx9WKOTdd+zYMdmwYYOsWLEiq1OZ8i3S1BShEAqVkHcZwTJsPopyqf1l165dctVVV2XIH3zwweykFCerLPIwaAyEwqDEuH5UAggFhMKofaiJ9yMUmpgV6gQBCECg/QQQCoY5bKpQWLt2rWzZsmXiWM2YQiE89lPLVqGge0EsX748kxhdEgra9q1bt8qqVasmHXPq56gMj6qEgubHP4a1CXstIBQM36QIVYoAQgGhUKqjtOwihELLEkZ1IQABCLSEAELBMFFtEgr6TfT06dOzb5+rHMAyQ2FyB+u17MDf16LKfGhtimSESiBdMvO2t71NDhw4IJdcconhUzJ4KITC4My4YzQCCAWEwmg9qJl3IxSamRdqBQEIQKDtBBAKhhmsSyj4A1A3YNVv/3UzRf0J9zAI92MYdACrMXUTx3Cg2W8PhTlz5kza08Hfo6FM+RZpasKSh7wZCmHbyvAokgIas1c+iu7VOu7YsUNOOeUUWbBgQc+ZLRY5KRMDoVCGEtdYEkAoIBQs+1NTYiEUmpIJ6gEBCEAgLQIIBcN8ViEU3PIAPX3B/axcuXJig0X9nX8ShH7TffXVV8uSJUsmbaRXdMrCvHnzspMi9KfXRnwuhrvW3wRSB57+jzuFwv3OLz9vE8Iy5Y+aqiYIBTfQ94VKuG/BoEJhUMHjC4V+94Ybc47Kf9j7EQrDkuO+YQkgFBAKw/adJt+HUGhydqgbBCAAgfYSQCgY5q4KoWBYvc6HaopQ0ET4giXvGM8ygsVC8IRyyHUSXfagP7rHRd0/CIW6M9C98hEKCIUUez1CIcWs0iYIQAAC9RNAKBjmAKFgCLOCUE0SChU0zzRkEzZjdA1CKJimlmAlCCAUEAoluknrLkEotC5lVBgCEIBAKwggFAzThFAwhFlBKIRCf6j+8ppwyUoF6SgdEqFQGhUXGhFAKCAUjLpSo8IgFBqVDioDAQhAIBkCCAXDVCIUDGFWEAqhUAHUCCERChEgU8QkAggFhEKKjwRCIcWs0iYIQAAC9RNAKBjmAKFgCLOCUAiFCqBGCIlQiACZIhAKQR+YNWvWD/bv33/6ueeeS+9IhABCIZFE0gwIQAACDSOAUDBMCELBEGYFoRAKFUCNEBKhEAEyRSAUEArJPwVJCoUTTjjhvc8999yFInI8+QzSwJgEpsyZM+dPH3nkkZ/GLJSyINBSAggFw8QhFAxhVhAKoVAB1AghEQoRIFMEQgGhkPxTkKRQOPHEE39w5ZVXnn766acnn0AaGI/AN7/5Tdm3b99/PXr06FXxSqUkCLSWAELBMHUIBUOYFYRCKFQANUJIhEIEyBSBUEAoJP8UJCkUxsbGDuzevXvuhRfqJAV+IGBD4E//9E9l3bp1txw9evQjNhGJAoGkCSAUDNOLUDCEWUEohEIFUCOERChEgEwRCAWEQvJPAUIh+RTTQCsCCAUrksTpCAGEgmGiEQqGMCsIhVCoAGqEkAiFCJApAqGAUEj+KUAoJJ9iGmhFAKFgRZI4HSGAUDBMNELBEGYFoRAKFUCNEBKhEAEyRSAUEArJPwUIheRTTAOtCCAUrEgSpyMEEAqGiUYoGMKsIBRCoQKoEUIiFCJApgiEAkIh+acAoZB8immgFQGEghVJ4nSEAELBMNEIBUOYFYRCKFQANUJIhEIEyBSBUEAoJP8UIBSSTzENtCKAULAiSZyOEEAoGCYaoWAIs4JQCIUKoEYIiVCIAJkiEAoIheSfAoRC8immgVYEEApWJInTEQIIBcNEIxQMYVYQCqFQAdQIIREKESBTBEIBoZD8U4BQSD7FNNCKAELBiiRxOkIAoWCYaISCIcwKQiEUKoAaISRCIQJkikAoIBSSfwoQCsmnmAZaEUAoWJEkTkcIIBQME41QMIRZQSiEQgVQI4REKESATBEIBYRC8k8BQiH5FNNAKwIIBSuSxOkIAYSCYaIRCoYwKwiFUKgAaoSQCIUIkCkCoYBQSP4pQCgkn2IaaEUAoWBFkjgdIYBQMEw0QsEQZgWhEAoVQI0QEqEQATJFIBQQCsk/BQiF5FNMA60IIBSsSBKnIwQQCoaJRigYwqwgFEKhAqgRQiIUIkCmCIQCQiH5pwChkHyKaaAVAYSCFUnidITAm08++eQHPv3pT7+qI+2ttJm7du2Sb3zjGzJlyhR58cUXtSz9n+OVFkrwgQjMnDnzZU8++eSUgW7i4loJIBRqxd/Jwt/3vvc9/eUvf3mViNzeSQAiMmvWrB/s37//9HPPPberCJJrN0IhuZTSoKoIIBSqIkvcRAm8/tWvfvWNL3/5y48l2r6ozXr1q1/9P/zbv/3bua985SufP378+MtE5AkReSFqJSisJ4Hnnntu2qxZs045duwYkqdF/eT48ePyy1/+Us4666wbH3zwwTUNrvrYjBkzfnj06FEEbYOTVKZqCAWEQpl+0rZrEApty5hBfR9++GG57bbbZNOmTTJt2jSDiN0IgVDoRp5pJQSaSGDmzJl3r1mz5r1LlixpYvU6X6cDBw7Ihz70IfnHf/zHzrNoG4C///u/l0996lP3/+xnP/ufGlx3hEKDkzNI1RAKCIVB+ktbrkUotCRTTzzxhOga2o0bN8rcuXOzWt9xxx2yY8eO7P/HxsYmfnfw4EFZt25dz5YNKhT0+muuuUZuvPFGOeOMM2TNmjWyfPlymT9/fkvo2VQToWDDkSgQgMDgBF7zmtf8n1u3bv1fP/jBDw5+M3dUTuCf/umf5Ld/+7eP//znP9fZI/y0iMBXv/pV+eAHP/j3R44ceWeDq41QaHByBqkaQgGhMEh/acu1CIW2ZEpErr/+elm4cOHEQF7/ftddd8nOnTszyXDs2LFSg/1BhYKPqGwZLcJauqoIhdKouBACEDAmgFAwBmocDqFgDDRiOIRCRNgUJQgFhEKKjwFCoUVZ1ZkIbvaBzlhYu3ZtJhJe97rXyZVXXinud1u2bMlmLOzfv18WLFiQtXDRokUTMxmcUNDf33DDDTJv3rwJKaExNNaePXsmfj979uysLJ31oBJj+/btk2JOnz49Exnu97fffnsWI7UfhEJqGaU9EGgPAYRCs3OFUGh2fvrVDqHQ3ty1seYIBYRCG/ttUZ0RCkWEGvS6igBd8nDTTTfJkSNHZPfu3XLhhRdmyx62bdsmDzzwgOzduzcb+IezEFQu+K8tXbpUbr755my2g77mYuhO4vrjCwFfVDh54C958GdO6AyGDRs2yIoVKyaWZjQI4UhVQSiMhI+bIQCBEQggFEaAF+FWhEIEyBUVgVCoCCxhcwkgFBAKKT4aCIUWZdUfrN9///1Zzd/1rndlswd0VsItt9wic+bMyWSAPzvBNXHlypWZeHj00UcnbcroCwPdWEpnNfizB5OJlwAAIABJREFUDPoJBbcEws1OcGXde++9ye2xgFBo0cNCVSGQGAGEQrMTilBodn761Q6h0N7ctbHmCAWEQhv7bVGdEQpFhBr2ui57eOaZZ+SRRx6ZmAWgMwTe/va3y9e//vWJ3/kzEsImhLMXwqUSer2Wo8shdH8Gt+RBpUU4QyHlGQkhN4RCwx4GqgOBDhFAKDQ72QiFZucHodDe/KRWc4QCQiG1Pq3tQSi0LKsqCjZv3iwnn3xytvRB90rQwf8Xv/jFbM8DdxSkfzKDOxXCNVVf85c86P379u3LZi/4x0i6pQznnHPOxCwILS9vc0iN3e9kiZZhzq0uQiGFLNIGCLSTAEKh2XlDKDQ7PwiF9uYntZojFBAKqfVphEILM+o2TdS9D9wA3gmC6667btLeB+GyBxURbn8FlQc/+9nP5Etf+tKkTRlVFqxfvz4j45ZIPPvss5OEgovrNnoMN2X0N3lsIeKeVUYopJRN2gKBdhFAKDQ7XwiFZucHodDe/KRWc4QCQiG1Po1QSDGjtKkyAgiFytASGAIQKCCAUGh2F0EoNDs/CIX25ie1miMUEAqp9WmEQooZpU2VEUAoVIaWwBCAAEKh1X0AodDe9LEpY3tz18aaIxQQCm3st0V1Zg+FIkK8DoFxAggFugIEIFAXAWYo1EW+XLkIhXKcmngVQqGJWUm3TggFhEKKvRuhkGJWaVMlBBAKlWAlKAQgUIIAQqEEpBovQSjUCH/EohEKIwLk9oEIIBQQCgN1mJZcjFBoSaKoZv0EEAr154AaQKCrBBAKzc48QqHZ+elXO4RCe3PXxpojFBAKbey3RXVGKBQR4nUIjBNAKNAVIACBugggFAYjf/fdd8vFF1886SjkwSIMdjVCYTBe4dWx8+WXj1AYLXfcPRgBhAJCYbAe046rEQrtyBO1bAABhEIDkkAVINBRAgiF8onXo5Rvu+022bRpE0KhPLbarqwjXwiF2tLd+YIRCgiFFB8ChEKKWaVNlRBAKFSClaAQgEAJAjGFwh133CHLli3LarVo0SLRv4+NjU3U8vrrr5f169dnf1+5cqVs27Yt++81a9bIzJkz5ec//7ncd9992YB+w4YN2Wtf+MIX5HOf+1zP13fu3Clz587NrvXL37x5s6xbt27S7++55x656667ZPv27TJv3jxx9z7xxBNy5ZVXyp49eyYRvffee2X+/PklKA9/SZ0zFMjX8HnTO5mhMBo/7h6MAEIBoTBYj2nH1QiFduSJWjaAAEKhAUmgChDoKIFYQkEHp/v27cskwbRp07LBvf7oQF1/VCbojz/IP3jwYPZ3/ab5mmuukRtvvFGOHDkiO3bsyOJs3bpVFi5cKLNnz+77ug76tTwXT8vZv3+/7N27d6I8LV9lgpMI4fV6Tx3feNclFMjX6G8ICIXRGRKhPAGEAkKhfG9pz5UIhfbkiprWTAChUHMCKB4CHSYQQyjoN/yrV6+WjRs3TswW8JHnDdSPHTuWzUJYsWJFdunu3buzmQoqAg4dOpSJCB30nnnmmZlQ6Pf6W97ylkw+rFq1amJGhNZp7dq1smXLlux3KhRUTrgZB6Fw6JJQIF82bwgIBRuORClHAKGAUCjXU9p1FUKhXfmitjUSQCjUCJ+iIdBxArGEgj94D5Hr4N3NOtDZC/qjQkEFwvLlywuFQZFQOOecc3KXLPjLLhAKv8pKKFvI13BvEgiF4bhx13AEEAoIheF6TrPvQig0Oz/UrkEEEAoNSgZVgUDHCNQpFHTgOn36dHn00Udfstlh1TMUwjQjFIqFAvka7M0BoTAYL64ejQBCAaEwWg9q5t0IhWbmhVo1kABCoYFJoUoQ6AiBGEJBUYZ7JOgyB7dMwb0+Z86ciT0V/D0M/GuHWfKQt4eCDo537dolV111VZbpQYWC3qObOF5yySWV9pS69lAgX6OnFaEwOkMilCeAUEAolO8t7bkSodCeXFHTmgkgFGpOAMVDoMMEYgkFN2gPT3FwSxzC190pDG7pg5688JWvfCU70eHHP/7xxEkPr33ta+W0007LTnvIe/3UU0+dOE3CP0XCX+7gTjNwJztoXZYuXSoPPfSQ3H777ROSw6+jfwpEld2nLqFAvkbPKkJhdIZEKE8AoYBQKN9b2nMlQqE9uaKmNRNAKNScAIqHQIcJxBQKHcY8dNPrFApDV5obMwIIBTpCTAIIBYRCzP4WqyyEQizSlNN6AgiF1qeQBkCgtQQQCs1OHUKh2fnpVzuEQntz18aaIxQQCm3st0V1RigUEeJ1CIwTQCjQFSAAgboIIBTqIl+uXIRCOU5NvAqh0MSspFsnhAJCIcXejVBIMau0qRICCIVKsBIUAhAoQQChUAJSjZcgFGqEP2LRCIURAXL7QAQQCgiFgTpMSy5GKLQkUVSzfgIIhfpzQA0g0FUCCIVmZx6h0Oz89KsdQqG9uWtjzREKCIU29tuiOiMUigjxOgTGCSAU6AoQgEBdBBAKdZEvVy5CoRynJl6FUGhiVtKtE0IBoZBi70YopJhV2lQJAYRCJVgJCgEIlCCAUCgBqcZLEAo1wh+xaITCiAC5fSACCAWEwkAdpiUXIxRakiiqWT8BhEL9OaAGEOgqAYRCszOPUGh2fvrVDqHQ3ty1seYIBYRCG/ttUZ0RCkWEeB0C4wQQCnQFCECgLgJdFwrXX3+9HD58WLZt2ybTpk2rKw09y+2aUGh6PgbpIAiFQWhx7agEEAoIhVH7UBPvRyg0MSvUqZEEEAqNTAuVgkAnCFQtFPbv3y8LFizIWM6bN0927twpc+fObQxbHcDqz7p16xpTJ78iXRQKTc7HIJ0EoTAILa4dlQBCAaEwah9q4v0IhSZmhTo1kgBCoZFpoVIQ6ASBKoXCww8/LLfddpts2rQp+/ZfB+9z5syRK6+8Mhrbu+++Wy6++OJGzj4oAyE1oTBqPka9vwxzq2sQClYkiVOGAEIBoVCmn7TtGoRC2zJGfWsjgFCoDT0FQ6DzBKoWCrt375Y1a9bUwjkUGrVUYsRCUxIKo+Zj1PtHTMXAtyMUBkbGDSMQQCggFEboPo29FaHQ2NRQsaYRQCg0LSPUBwLdIVCFUNCB39KlS+Whhx6aBPLee++V+fPnZzMV7rrrronlD25ZxO23357NXrjjjjtk2bJlcs8992TXbd++PXe5hLtOC1m0aFF239jYmDzxxBNZnD179uSWr7/0l2K4csOsaz3Xr1+f/XrlypUT+yyUrZ9FL2qSUPB5b968eWKZSBGPUfNRdL+fS+1js2fPnuh/vXJrkZuiGAiFIkK8bkkAoYBQsOxPTYmFUGhKJqhH4wkgFBqfIioIgWQJVCEUHCwVC71mKOgmiIsXL57YT0EHhYcOHZpYDhFKBx20Hjx4cNIgdt++fZMG+Vquv5yizDfaGje8T/8e7q0Qll9UP6sO0xShELZf87V3796JfJThMUo+lGe/+1U67Nq1S6666qoM/YMPPpgtc6lzvw6EgtVTQJwyBBAKCIUy/aRt1yAU2pYx6lsbAYRCbegpGAKdJ9BkobBw4cJsRoP++ANYHTyuXr1aNm7c2HfAOOwANu++Y8eOyYYNG2TFihVZmTqA7lU/y07VBKGgbd+6dausWrUqmwGiP5qDtWvXypYtW7LfleExbD58QeXvyRFyvvXWW+XSSy/N6tOEvRYQCpZPArGKCCAUEApFfaSNryMU2pg16lwLAYRCLdgpFAIQEJG2CgV/MNsrkcMOYFVe7NixY9JRkjqo1r0gli9fPrFsoytCodeSA3+ZSROEgpvl8ra3vU0OHDggl1xySa3POEKhVvydKxyhgFBIsdMjFFLMKm2qhABCoRKsBIUABEoQSEko6MB3+vTpEyc6DCsUmKEwuePkzVAIu1YThILWU0XQKaeckh1V6mZTlHgMKrkEoVAJVoL2IIBQQCik+HAgFFLMKm2qhABCoRKsBIUABEoQqEso+ANQ9w24fvvv9kAoGqCGexzk7dfgiwFFoZs8ht9a99tDwT/iMm8Pha7MUFB2YfvDPQuK8qUxRsnHIPf7e22UeAQquwShUBlaAucQQCggFFJ8MJIUCuecc85Tjz766MypU6emmDPaVBOBX/7yly874YQTvvWzn/3s7TVVgWIhAIGOEqhCKLjlAXo6g/vxT0lwg0N3EoROnb/66qtlyZIlorvy64+e8jBv3rzsJAj9cdf6u/b3OoXBT6W7xsVym/T5JwO4690pFO7vfvy8Uw2K6mfRpZqwh0IeD3+5gzvloQyPUfKh9eh1v6uj5lV/3N4bFjkYNgZCYVhy3DcMAYQCQmGYftP0e5IUCrNmzfr+F7/4xTP0H01+IGBFQDeZ+pM/+ZMvPvPMM//JKiZxIAABCJQhUIVQKFMu15Qj0CShUK7G9V7VhM0YHQGEQr19oWulIxQQCin2+SSFwtjY2IHdu3fPvfDCC1PMGW2qiQBLHmoCT7EQgEClmzKCd3QCCIVihv6MmHCWSfHd1V2BULBhGx4xaxM1fpR+x+ha1AahgFCw6EdNi4FQaFpGqE9jCSAUGpsaKgaB5AkwQ6HZKUYoNDs//WqHUBg9d7qc5swzz2zEEpbRW/Pfj789dOjQxF4xFjFdDIQCQsGyPzUlFkKhKZmgHo0ngFBofIqoIASSJYBQaHZqEQrNzg9C4VcE/D1H3G/9GSN5r/t7cYQs9Rv98PjPvCNM/X1VNEbR3id6TXhPWLbGOHz48KSjY616YlUzLhAKCAWrPtqkOAiFJmWDujSaAEKh0emhchBImgBCodnpRSg0Oz8IhckEBj29pdfAPe+o0rzf6f3haSz79u2bEAF5r2uN3WkyvfIXniJj2QurWvqAUEAoWPbTpsRCKDQlE9Sj8QQQCo1PERWEQLIEEArNTi1Codn5QSj0Fgr6ig6eN27cKDfddJOMjY1lswf841bD1120XsfA7t69W9asWTNRqEoGdxyszl5YvXp1Vp47zSWM3+uY2EF72Sibf2qdN2zYICtWrJio56Dl511fIBTOnD59+nUnnnjiex9//PE3WJTXxBizZs36wf79+08/99xzm1i9SXXy935xM3WmT5+e9W89Ick/WajxjamwggiFCuESOi0CCIW08klrINAmAgiFZmcLodDs/CAU+gsFt0Rh3bp12T4IeUJBT7ratGmTTJs2bSJY3sC/l3xwN+n+BDt27Ji0TMEN2pYvX56VbyEUtB55dR6kp1axN0QPoXDmSSed9Jlf/OIXl1x77bVT/uiP/ugVIvKyQeraoGs/LiJ/IiIv9KpTm4SCtiFPLvmSrEHsa6sKQqE29BTcNgIIhbZljPpCIB0CCIVm5xKh0Oz8IBT6C4VwQB8KhfDvLlqvAbf+ftmyZbl7IOhr/nIHF8tf9lAkFFRKLFiwILs13Gchb/8GvS48WcTVUV/r9S1zUT2G6fWBULjgta997bqjR4++5+Mf//gr//AP/1BmzZolJ5xwwrFf/vKX04eJ34B7dorIfxiXCp8VkRfDOiEUGpAl4yogFIyBEi5dAgiFdHNLyyDQdAIIhWZnCKHQ7PwgFMoJhYsuuijbtyDcmLHX5oj9vsH3p4r79+s9Bw8eFJ0N4f8MIhR8oaH/nbfXQr8ZCmEdVFDs3bv3JXWqUCj877NmzVo0derUuWvXrj3xAx/4QCYS9Ofv/u7vVMYcOHz48Jtb+lSpULh8vO6PeWLhuGsPQqGlme1TbYRCejmlRRURQChUBJawEIBAIQGEQiGiWi9AKNSKf6TCu3hsZDjjoGiGQq9ZBWUG3C72aaedlg3Y6xYKeZtG6qyGtWvXypYtW7I9JHxhYX0c5lvf+tbnHnjggVecdNJJon/Cn2eeeUaefPLJF48fP/7vIqKDcDcQnyoi/7eI/L8i8pyI/DL4Y/G750d6mP77zb5QcOF+5IkFlSet2UNBG1B2yUORiOs1K8b9ft68ebJz5045cuRINgPH/d3tNWKQm8pCIBQqQ0vg1AggFFLLKO2BQHsIIBSanSuEQrPz0692CAWRcKPEIuHgeOZtyvjggw9m+yz4gyB/wK5HTIazAYbdQ6Gf0Og1Q6HXkojwaMyqNmVctGjRM3/7t39778tf/vJ3fvjDH57yB3/wB6+YOXPmRBf90pe+pDNEfvT0009/WkRUIuh+Cq8UkfeO//2R8f/X117u/bf+Pe93Za+ZMr7vgUoF/4/uhTDI784Tkdf3eOaeEpGvTZ8+/eIdO3acfOmll7bijaOMUNBZLocOHZqYLRMep1pmVoweVTpjxgz5yU9+Itdee2228aPbV6TpoBAKTc8Q9WsMAYRCY1JBRSDQOQIIhWanHKHQ7PwgFCYTCIWBDob0dzroyTvlwQ343ZIIFy3v2/48yeBfp9++6maJZ511lqxcuTL786lPfUquu+66iZMf8kSBigD9c/bZZ080ZhihkFfnvP4R4djI/2vGjBmfe+GFF373k5/85Akf/ehHs2UPuuRh6dKl/9/jjz9+flCvt4rIRhF5uqKnTYWCygfdDNL9t/6//l1/r/9d5s9sETmzTx1/OHXq1NfeddddJ7z3vepImv9TViiEm432e07yZsVUeQxq1ZQRClUTJn4yBBAKyaSShkCgdQQQCs1OGUKh2flBKPQWCjpwXrp0qdx8883ZCQv6kyccPvKRj2TTscPp1+E3sW4GgH6z6vY2CPco8PdLcNPE/Y0R80SBfnu7ePHiSeWXFQraJndspf53+G2x1nnXrl1y1VVXTYDKK8+il+ec8nDmySefvPXYsWP/y+c+97lXvvGNb5TLL7/82z/96U/nWZRXQ4y8JQ9aja+JiG7S+PVUlzy4Z+mhhx6atNFn2VkxVfW5GH0AoRCDMmUkQQChkEQaaQQEWklg5syZd3/iE59472WXXdbK+qde6e9973s6eDr+1a9+ta1HvaWeop7tu+++++Qzn/nMt59++ukmD+DGZsyY8cOjR4++atREheu8/XXa/kaKfjlFa7n9zRnzYugsBB0s+UdO+vXQ13X/gmzU+bWvZSdEhD/+kgT/lAd3XXiKgxMj69evz12L7pcfLncIp6+Pyty/v8exkXrJBSeddNJ/fe65537jVa961feefPLJ/9Gy3IixQqGwZ1wk3OPqkKpQ8Bn7Eq3srBiEQsReOl5U33+wx8bGDuzevXvuhRdeGL9mlJgsAYRCsqmlYRBoPIHzzz///3jkkUf+09SpUy02zWp8e9tWweeff/7lM2fOPMHbQK1tTeh0fadMmfKLH/3oR68REd0Ir4k/ZkKhqsYNOxhy395qvdySi6rqWCZuVUsdXNl9hIK75J2nnHLKqT/5yU++VKa+DbzGCQUVCDojQYXCpJ+2CQWtvD+rxvVV/X83C+fWW28V3RPCbeqp/fqWW27J9kJQkVbnrJgYfYQZCjEoU0YSBBAKSaSRRkCglQROOumkXYsXL/7d3/qt32pl/VOvtG7G9YUvfCHbnZuf9hF45Stf+fxzzz33aoRC+3LXthqXEApta1JYXxUKfzG+xCG3LW0UCuHMG3+JjhMM/syavFk9vWbF+Kc/aKyiGUFN7CAIhSZmhTo1kgBCoZFpoVIQ6ASB17zmNXf88R//8RUf+tCHOtHetjXyW9/6lrz73e8+fuTIEZY8tC15uoU+QqGFWWtnlTsgFAoT00ahUNiojl+AUOh4B6D55QkgFMqz4koIQMCWAELBlqd1NISCNdG48RAKcXl3uTSEguhpFj/Yv3//6eeee26Xu0JSbUcoJJVOGlMlAYRClXSJDQEI9COAUGh2/0AoNDs/RbVDKBQR4nUrAggFhIJVX2pSHIRCk7JBXRpNAKHQ6PRQOQgkTQCh0Oz0IhSanZ+i2iEUigjxuhUBhAJCwaovNSkOQqFJ2aAujSaAUGh0eqgcBJImgFBodnoRCs3OT1HtEApFhHjdigBCAaFg1ZeaFAeh0KRsUJdGE0Ao/P/tnX2MVcfZ2CcfdsKHX1tdGtwQuRSlwrJVEbluFAuiSkQGTKsswRYrGbZWjChi35UlVNJIIcunyIdMQ8JrsCkhigVEIREopNLGbCT+yILsSKnjfRPJEKUIk9AIB1Lh4MWxjVM9J8zN7OHePefeO+ec58z8rhTFe885M8/8njnszu/MzFGdHoKDQNAEEAq604tQ0J2frOgQClmEOO6LAEIBoeCrL2kqB6GgKRvEopoAQkF1eggOAkETQCjoTi9CQXd+sqJDKGQR4rgvAggFhIKvvqSpHISCpmwQi2oCCAXV6SE4CARNAKGgO70IBd35yYoOoZBFiOO+CCAUEAq++pKmchAKmrJBLKoJIBRUp4fgIBA0AYSC7vQiFHTnJys6hEIWIY77IoBQQCj46kuaykEoaMoGsagmgFBQnR6Cg0DQBBAKutOLUNCdn6zoEApZhDjuiwBCAaHgqy9pKgehoCkbxKKaAEJBdXoIDgJBE0Ao6E4vQkF3frKiQyhkEeK4LwIIBYSCr76kqRyEgqZsEItqAggF1ekhOAgETQChoDu9CAXd+cmKDqGQRYjjvgggFBAKvvqSpnIQCpqyQSyqCSAUVKeH4CAQNAGEgu70IhR05ycrOoRCFiGO+yKAUEAo+OpLmspBKGjKBrGoJoBQUJ0egoNA0AQQCrrTi1DQnZ+s6BAKWYQ47osAQgGh4KsvaSoHoaApG8SimgBCQXV6CA4CQRNAKOhOL0JBd36yokMoZBHiuC8CCAWEgq++pKkchIKmbBCLagIIBdXpITgIBE0AoaA7vQgF3fnJig6hkEWI474IIBQQCr76kqZyEAqaskEsqgkgFFSnh+AgEDQBhILu9CIUdOcnKzqEQhYhjvsigFBAKPjqS5rKQShoygaxqCaAUFCdHoKDQNAEEAq604tQ0J2frOgQClmEOO6LAEIBoeCrL2kqB6GgKRvEopoAQkF1eggOAkETCE0obN++3Vy8eNHs2rXLTJkype3cnT171pw5c8b09va2fW0RF4QuFELLV7oPIBSKuCsosxkBhAJCIcQ7A6EQYlZpUyEEEAqFYKVQCEAgB4EQhYI0e2hoKEfr/37K6dOnzYIFC5IvDh06ZFauXNnW9UWdHINQCClfCIWi7gTKzSKAUEAoZPWROh5HKNQxa6mYr1+/bjZv3mxWr15t5s6dmxy9cuWK2bhxo9mxY4fZu3ev2bRp0y0t3bZtmxkYGGj8QXb48GHT09PTOE/KkD/WZs+enTxFkk+6ngDw5W4CQiE3Kk6EAAQ8E6ibUDh+/LhZtGhRR7MP8qCT31fyQSjkoZV9Tmz5Qihk9wnOKIYAQgGhUEzPqrZUhEK1/L3UniUUrCRwJUP6Owmkv7/fzJ8/vxGT/ME2NjaW/Lx161aEwje/KU/T9l67du0fvSSOQiAAAQjkJFAnoSDLEQ4cOJD83uhkOUMeJAiFPJTynRNjvhAK+foGZ/kngFBAKPjvVdWXiFCoPgddR+BDKDzyyCPmJz/5SWM9qy1TBINMMUUoGMMMha67KgVAAAIdEihLKMjgsq+vryGT165d2/i9IIP4VatWmXnz5pkjR46Yy5cvJ8sP7M8zZsxIZgycOHFiQitPnTrVkNV5lizYeqSQxYsXm/TsOfl+MqHgXi8z8dpdVtFJiqpa8kC+OsnWrdewh4IfjpSSTQChgFDI7iX1OwOhUL+c3RKxDP7Xr19v9u3bN+FY+g+xyWYofPnLXza7d+9uLJuQP/pOnjxpVqxY0XjSJIWz5IEZCgHcMjQBArUjUIZQkN8Rg4ODZsuWLY3lc7IZ38KFCyfMXpMlcNOmTTOXLl0yGzZsSH7/uDPc8jzxbiUE5PvR0dEJEkOSlV7aMNn1586da0gE+7usaKlQhVAgX/5uY4SCP5aUNDkBhAJCIcR7BKEQQFZ9zFCQvRZeeOEFI3+IuX8gyhMnO3UVocCShwBuF5oAgVoSKEMoNAMjA3fZR8ddDieSQT6tBumdCoVmA+RWyWomFOR34c6dO5O9gSZb6ldEB6hCKJAvf5lEKPhjSUkIhaw+cNddd/3u9OnTH7vvvvuyTuV4TQggFGqSqMnC9CUUZPqqPJmSJ1SyQZMsc7hw4QJC4SZ8ljwEcLPQBAjUlEBZQsFdkmBRuUsW5DuZobB06dLGLIY00m6Egt1M2N0guNXAWb53Zy7YjYTTSy5aLZvw2RWqEgrky08WEQp+OFJKNgFmKDBDIbuX1O8MhEL9cnZLxL6EgvwBJ0+e5I0Q9nVc7h+GUjFLHljyEMAtQxMgUDsCZQiFZiKg2QyFsoWCiIKpU6dO2OAx7wyFshJdhVAgX/6yi1Dwx5KSJieAUEAohHiPIBQCyKpPoSBPO0Qq2E2w0kIhvVdD+slVADhbNoEZCiFnl7ZBQDeBMoSC/Pt/8ODBxv4FdsO/p59+2oyPj5ve3t4EUjtCQc4fGRlpXGspt9oDIb2cQmIYHh5O9mlwP3n3UBAZcezYMbNmzZpCE1yFUCBf/lKKUPDHkpIQCll9gCUPWYTqdxyhUL+cEXFFBBAKFYGnWghAwJQhFASznaUm/y1veHj00UfNokWLjMjj8+fPJ295sB/7doe5c+fekiFbTvqcPFP00zGIwLCvn3Tf4GArtTPq7M/u9WUsd5B6qxAK5MvfPwwIBX8sKQmhkNUHEApZhOp3HKFQv5wRcUUEEAoVgadaCECgNKEA6s4IVCUUOouWq9IEEAr0ibIIsOSBJQ9l9bUy60EolEmbumpNAKFQ6/QRPARqTaCsGQq1hlRh8AiFCuF7qBqh4AEiReQigFBAKOTqKDU7CaFQs4QRbnUEEArVsadmCMROAKGguwcgFHTnJys6hEIWIY77IoBQQCj46kuaykEoaMoGsagmgFBQnR6Cg0DQBBAKutOLUNCdn6zoEApZhDjuiwBCAaHgqy9pKgehoCkbxKKaAEJBdXoIDgJBE0Ao6E4vQkF3frKiQyhkEeK4LwIIBYSCr76kqRyEgqZsEItqAggF1ekhOAgETQAVB/BlAAAgAElEQVShoDu9CAXd+cmKDqGQRYjjvgggFBAKvvqSpnIQCpqyQSyqCSAUVKeH4CAQNAGEgu70IhR05ycrOoRCFiGO+yKAUEAo+OpLmspBKGjKRkGxuO/9dt8J7n4v7xu37/o+e/as6evrM2NjY6asd3gX1HSvxSIUvOKkMAhAoA0CCIU2YFVwKkKhAugeq0QoeIRJUZMSQCggFEK8RRAKIWbVaZNIg+3bt5vDhw+bnp4ec+XKFbN3717z5JNPmg0bNpgtW7aYuXPnGjlPPg888IBZv3696e/vN/PnzzciF86cOWN6e3sDJ5XdPIRCNiPOgAAEiiGAUCiGq69SYxMK8nfFxYsXGw8ifHGsqhyEQlXk46sXoYBQCLHXIxRCzOrNNl2/fn2CHHCbKmJhcHCwIRTsscmuCRhVrqYhFHJh4iQIQKAAArELBe0D2BiFgnTzoaGhAnp7+UUiFMpnHmuNCAWEQoh9H6EQYlZvtqmVNLBNtkse3OUOcswuebj77rsbMxsCxpS7aQiF3Kg4EQIQ8EygaKHQammc52Z0XJwIBc0D2NCEwvHjx82iRYvMlClTOspZt9d3VGkXFyEUuoDHpW0RQCggFNrqMDU5GaFQk0R1EmaWULBlynKIVatWmVOnTiXLHNLC4dChQ2blypWdhBDUNQiFoNJJYyBQKwJFCgWRyAcOHDBbt25NBpAyeJ8zZ06p/+7XbQCa7jwhCYV0f2j3Run2+nbr83E+QsEHRcrIQwChgFDI00/qdg5CoW4ZayPedpYvyNOpgwcP3rIeUv4wkH0WnnnmmWQPhpg/CIWYs0/bIVAtgaKFwvDwcLJEropPHQegmoWCfUggMW7btq2xLMF+PzIyYo4ePWr27dtn3I2a5SGEPDw4ceLEhOa5DxvcmSzphw1Z17vXSpkzZsxobABd9YMLhEIVd36cdSIUEAoh9nyEQohZddokf0CIKEhvyvjZz37WnDx5svEHpBw/d+6cGRgYSDZtlA0b5UlVK9EQOLamzUMoxJh12gwBHQSKEAruG33cVtoBpMxUkIHnkSNHGpv3LliwwNjBX9YA1ZbpDnDdNwdlDUDl+skGsLZ8iXPTpk3Jj+4Svrzx+ciwlhkK9ne53dtA+MnvevtzOqfp84VFHsEj18mn2ezFya6XnB87dsysWbMmuf6VV15J/taQzaGr/CAUqqQfV90IBYRCiD0eoRBiVlNtcv+Yc59GZP0RJsXw2si/w0QoRHCz0EQIKCVQhFCwTZUBYKsZCvI64aVLlzYGfDJAPX/+fGMgmTVAld8/o6OjjdlvzQai3Qxg03srpAfIWfH5SrcGoSCzEnfu3Jk8GLAzCmUAv3HjRrNjx47kO+GxcOHCxvLGtHAoWihI+fv37zfLly9P4tGy1AWh4OtOoJwsAggFhEJWH6njcYRCHbNGzJUQQChUgp1KIQABY4xmodBqgJp3H59OhUKz62RQvXnzZrN69epEguQZQPvoYBqEQqsZH+6DgTw8Os2HK6jcPTnSfK2UevDBB9W8lhqh4OMuoIw8BBAKCIU8/aRu5yAU6pYx4q2MAEKhMvRUDIHoCdRVKLhPx1slsdMBbLMleem9g/IMoH10Lg1CodkMhXTb8vDoNB95hYLEKUsxZ86caWQJjYb9mRAKPu4CyshDAKGAUMjTT+p2DkKhbhkj3soIIBQqQ0/FEIieQEhCQZ6kT506tfFKwk4HsMxQuPW2SC/5SO9Z0K5QkBpkE8fe3t4JleXdQ2Gy62XfJru3Q9U3OEKh6gzEUz9CAaEQYm9HKISYVdpUCAGEQiFYKRQCEMhBoCqh4A5A7ZT6/v7+CXsoTLYmP73HQbP9Glwx0O4ANv2Ky2Z7KGTtGZADf+YpGmYo2CDd/ZHc5Q52PyW7l5Kc39fXZ8bGxhobbabLcPddkmPuJpn23PQrp+V7G0P6enuNlCMf91XVmZALPAGhUCBcip5AAKGAUAjxlkAohJhV2lQIAYRCIVgpFAIQyEGgCKFglwfI6wPtx31LgnznvglCBqfr1q0zy5YtSwag8lm1alXj1YOtBqitNgB2m91qAJpnAOuW3+w1iXkG0DlSMOkpmoRCt20p43otmzHatiIUysg6dQgBhAJCIcQ7AaEQYlZpUyEEEAqFYKVQCEAgB4EihEKOajklJwGEQjYoV2A1m9WQXUJxZyAUimNLyRMJIBQQCiHeEwiFELNKmwohgFAoBCuFQgACOQggFHJAqvAUhEKF8D1UjVDwAJEichFAKCAUcnWUmp2EUKhZwgi3OgIIherYUzMEYieAUNDdAxAKuvOTFR1CIYsQx30RQCggFHz1JU3lIBQ0ZaOkWNI7Y7vrT2Vd7MqVK0uKpF7VIBTqlS+ihUBIBBAKurOJUNCdn6zoEApZhDjuiwBCAaHgqy9pKgehoCkbJcXiCoWXX345eR/0rl27kld47d+/3yxfvlzFe6FLwpG7GoRCblScCAEIeCaAUPAM1HNxCAXPQEsuDqFQMvCIq0MoIBRC7P4IhRCzmtGmyYRChDhyNxmhkBsVJ0IAAp4JIBQ8A/VcHELBM9CSi0MolAw84uoQCgiFELs/QiHErLYhFGRWgl3ywHKHycEhFCK8WWgyBJQQQCgoSUSLMBAKuvOTFR1CIYsQx30RQCggFHz1JU3lIBQ0ZaOkWNJ7KEi19nVO58+fN4cPH2bJQ5NcIBRK6qBUAwEI3EIAoaC7UyAUdOcnKzqEQhYhjvsigFBAKPjqS5rKQShoykZJsTQTCrZqma0wZ84cNmZEKJTUG6kGAhDIQwChkIdSdecgFKpj76NmhIIPipSRhwBCAaGQp5/U7RyEQt0y5iHe06dPNzZiPHbsmJk9e7aZP39+Y5ZCf39/8jOfiQSYoUCPgAAEqiKAUKiKfL56EQr5OGk9C6GgNTPhxYVQQCiE16uNQSiEmNUWbZKZCX19fWZsbMzY/RKuXLmSzEY4ceJEchX7KLTuEAiFiG4WmgoBZQQQCsoSkgoHoaA7P1nRIRSyCHHcFwGEAkLBV1/SVA5CQVM2iEU1AYSC6vQQHASCJoBQ0J1ehILu/GRFh1DIIsRxXwQQCggFX31JUzkIBU3ZIBbVBBAKqtNDcBAImgBCQXd6EQq685MVHUIhixDHfRFAKCAUfPUlTeUgFDRlg1hUE1AoFP6bamAEV2cC/6POwYcYO0JBd1YRCrrzkxUdQiGLEMd9EUAoIBR89SVN5SAUNGWDWFQTUCYUls+ePft7n/vc596vGhrB1Y7A7t2733/jxo2pxpi3axd8wAEjFHQnF6GgOz9Z0SEUsghx3BcBhAJCwVdf0lQOQkFTNohFNQFtQuGRRx75zvDw8J2qoRFc7QjcdtttN959912EgrLMIRSUJSQVDkJBd36yokMoZBHiuC8CCAWEgq++pKkchIKmbBCLagIIBdXpIThPBBAKnkB6Lgah4Bmo5+IQCp6BllwcQqFk4BFXh1BAKITY/REKIWaVNhVCAKFQCFYKVUYAoaAsITfDQSjozIuNCqGgOz9Z0SEUsghx3BcBhAJCwVdf0lQOQkFTNohFNQGEgur0EJwnAggFTyA9F4NQ8AzUc3EIBc9ASy4OoVAy8IirQyggFELs/giFELNKmwohgFAoBCuFKiOAUFCWkJvh3HHHHf9r/fr1/3n58uU6A4w8ql/96ldm7dq15qGHHvpz5Chq2fwXX3zxg+Pj4//CGPOW0gb0TJs27ffXrl37sNL4CCsnAYQCQiFnV6nVaQiFWqWLYKskgFCokj51l0UAoVAW6fbqueuuu/75L3/5y7/70Ic+9Nf2ruTsMgjcuHHjfbfddpt56623/lJGfdThl8Dbb7/9wXfffXe9Meaf/JbsrTSEgjeU1RaEUEAoVNsDi6kdoVAMV0oNkABCIcCk0qRbCCAUdHaKO+64439+5StfWTM4OKgzwMijkhkK8+fP/+sbb7zxvshR1LL5AwMDbz377LP/HaFQy/TVKmiEAkKhVh02Z7AIhZygOA0CCAX6QAwEEAo6s4xQ0JkXGxVCQXd+sqJDKGQR4rgvAggFhIKvvqSpHISCpmwQi2oCCAXV6SE4TwQQCp5Aei4GoeAZqOfiEAqegZZcHEKhZOARV4dQQCiE2P0RCiFmlTYVQgChUAhWClVGAKGgLCE3w0Eo6MwLMxR05yVvdAiFvKQ4r1sCCAWEQrd9SOP1CAWNWSEmlQQQCirTQlCeCSAUPAP1VBxCwRPIgophhkJBYEsqFqFQEmiqMQgFhEKItwFCIcSs0qZCCCAUCsFKocoIIBSUJYQZCjoTkooKoVCLNLUMEqFQ7/zVKXqEAkKhTv01b6wIhbykOC96AgiF6LtAFAAQCjrTzAwFnXmxUSEUdOcnKzqEQhYhjvsigFBAKPjqS5rKQShoygaxqCaAUFCdHoLzRACh4Amk52IQCp6Bei4OoeAZaMnFIRRKBh5xdQgFhEKI3R+hEGJWaVMhBBAKhWClUGUEEArKEnIzHISCzrwwQ0F3XvJGh1DIS4rzuiWAUEAodNuHNF6PUNCYFWJSSQChoDItBOWZAELBM1BPxSEUPIEsqBhmKBQEtqRiEQolgaYaNmU0CIUQbwOEQohZpU2FEEAoFIKVQpURQCgoSwgzFHQmJBUVQqEWaWoZJEKh3vmrU/TMUEAo1Km/5o0VoZCXFOdFTwChEH0XiAIAQkFnmpmhoDMvNiqEgu78ZEWHUMgixHFfBBAKCAVffUlTOQgFTdkgFtUEEAqq00NwngggFDyB9FyMJqGwfft2s2nTpkYLDx06ZFauXNn4+fDhw2bVqlXJz4sXLzbyc09PT+O4e/3atWvNrl27zJQpU5Lz5Lp58+aZI0eOmMuXL5sFCxY0fp47d25Shlv+tm3bzNDQkGfa7ReHUGifmaYrEAqashF2LAgFhEKIPRyhEGJWaVMhBBAKhWClUGUEEArKEnIzHC1C4fTp0+b8+fMNgXD27Flz5swZ09vb2xjsj46OTpAEcsAKB5EJ8rESQOTAuXPnJkgBEQzTpk0zly5dMhs2bDDr1683/f39Zv78+YlMcM+XeE6ePFm5VEAo6Lxv8kaFUMhLivO6JYBQQCh024c0Xo9Q0JgVYlJJAKGgMi0E5ZkAQsEzUE/FaRIKBw8ebAgDt3lXrlwxg4ODZsuWLcbOJnCPi3w4cOCA2bp1azIjQT7Xr183mzdvNqtXr25ck5YOtgw5d+fOnWZgYKAx40Hq3Lhxo9mxY8eEWRCesOcuBqGQG5XKExEKKtMSZFAIBYRCiB0boRBiVmlTIQQQCoVgpVBlBBAKyhJyMxwtQkHCETHQ19dnxsbGjLvkIGtwL7MJ0jJCJIE7A0HKlxkKS5cuvUVKSPky0+HEiRMTktRsWUXZWUQolE3cb30IBb88Ka01AYQCQiHE+wOhEGJWaVMhBBAKhWDNVai7ZtpecOrUqWQKdJ6PHbTYwYp9Oprn2tjOQSjozLgmoeAScpcctBIK8v3UqVPNhQsXcs1QaCUUms1Q0JIthIKWTHQWB0KhM25c1T4BhAJCof1eo/8KhIL+HBGhEgIIhWoT4Q4ysp6ENotUrtm7d2+yJhuh0DqXCIVq+3mr2rUIhf3795vly5dPWHLg3lfp5Qoym2F4eDiZhSAfOT5nzpzGngqt9lBoNkNBrk+fL/f1sWPHzJo1aypNHEKhUvxdV45Q6BohBeQkgFBAKOTsKrU6DaFQq3QRbJUEEApV0r91GnSrp5itokQo5MsfQiEfp7LP0iIU0rOF7BsZ3D0TWr3FwTJzj7tLJvKUbaWEfcuEhuUOEhNCwe8dIX3k4sWLTffq8FvT30pDKBRBlTKbEUAoIBRCvDMQCiFmlTYVQgChUAjW3IVONkPBXVvtDnDc7+X1dLNmzUpmKMgTTVnLLQMYmYotT0/l2IoVK5K14fL57ne/a5577jnz0ksvJa+wa7bJXO7ga3QiQkFnsrQIBZ10qo8KoeA3B6025vRby99LQygURZZy0wQQCgiFEO8KhEKIWaVNhRBAKBSCNXeh7lNN96lkel21/fnJJ5803/rWtxq7x7sbwkml7m7x7rRpdyaDCIVWU69zB16zExEKOhOGUNCZFxsVQqG9/Bw/ftwsWrSo4+Vn3V6fjhah0F7+OLtzAggFhELnvUfvlQgFvbkhMmUEEArVJsTOULh8+fKE98432/ldZil87WtfM6+++mpj7bYrCiYTCnLM7mK/Z8+e3Bs/VkvHX+0IBX8sfZaEUPBJ039ZCIX8TJu9PjT/1X/79zn9+tF2rm92LkKhW4Jcn5cAQgGhkLev1Ok8hEKdskWslRJAKFSKv/EquXvuuWfCe+tb7Y2Q3gyuHaEgT78uXbpkpk2b1tg8rtrWl1c7QqE81u3UhFBoh1b557YrFNwZVxLtoUOHJvxb4+4nkd4notUeFfYau+xL5OuCBQtMep8Lt2x3D4u81Fpdb78fGRkxR48eNfv27ZtQd6vXfrpv7JGZZBJzMyZZ17vXSpkzZsxovN40zTfdVoRC3uxzXrcEEAoIhW77kMbrEQoas0JMKgkgFKpNi7uHQnr5gvsee1nyIPsjPPbYY0ZmGAwMDCQ70ssfu6Ojo4mYkI+75MHdOV5ExJkzZ0xvb29yzezZs6OapYBQqLaft6odoaAzLzaqdoSC/Pt1/vz5hkBw/82R8tx/q+SNNPKzfFauXJm8JUM+Q0NDyf+3ekuGyFCRorJnjPvvY/p897WfeQhnXS/xiUyw+840iy/PDAO3zem4Jrs+/daPV155JVlWkbUHDkIhT/Y5xwcBhAJCwUc/0lYGQkFbRohHLQGEQnWpsU++ZGNFKwTsa+jk5/Hx8eSP7RMnTkx4ImaXLoyNjZlvfOMbyfH+/v7kXPcpmz0mr7N79tlnk6eFS5YsaZSZ9XSrOjL+a0Yo+Gfqo0SEgg+KxZXRrlAQ6Sn/dqVfYSsD4sHBQbNly5ZbBsHNBtIiUDdv3tzYK0Za2GpDw/R+M3JuO6/gzXO91L1w4cKGhG0mLIoUCtIm99WmefdaQCgUd29Q8kQCCAWEQoj3BEIhxKzSpkIIIBQKwUqhygggFJQl5GY4CAWdebFRtSMU5BpXdrrLDiYb4Lszs6yIkEG+OwNBym71St1WSwbyvnozz/UahIKdAfLggw82Zptl9R6EQhYhjvsigFBAKPjqS5rKCVIoTJ8+/XdLliz5yMyZM/+qCTax1JvAK6+88oFf/vKX3x0fH1+joCXLH3nkke8MDw/fqSAWQgiIAEJBZzIRCjrz0qlQcFvjPsVvJRTk+9///vfJzKqtW7c2ZjY0m6HQSig0m2HQDtU812sQCnbZ28yZM5P9GGTJW9YHoZBFiOO+CCAUEAq++pKmcoIUCsaYR4wx/1YTaGIJhsDzxpirClqDUFCQhBBDQCjozGrsQkEGqhcvXmy6TEBDxtqZoeBOyZfY0xvLppcsuBvMyjFZmiXLtuTTag+FVq+7TZ+f3nMgi2XW9e0KBalPNnGUPWvcT949FCa7/ty5c429JrLahVDIIsRxXwQQCggFX31JUzmhCgVNjIkFAkUQQCgUQZUyDUJBZycoWii4O+Sn3wqggUirfQE0xCYxtCMU3P1b5NpmvFu9yUHOd4+5yyXylJu+Pu9yB5ezW797ffotE3JNX1+fkT1s0vvQ2DLSbXf7oa3TfQuE/a7V9fa4lCOf+fPn5+oiCIVcmDjJAwGEAkLBQzdSVwRCQV1KCAgCuQggFHJh4qR2CSAU2iVWzvlFCoX0Jnnpp+BltDDv5nllxNJJHe0IhU7K55r2CLTbnxAK7fHl7M4JIBQQCp33Hr1XIhT05obIIDAZAYQC/aMQAgiFQrB2XWjRQmF4eDjZ3K+KT55d/6uIq506EQrt0CrmXLtB5b59+0yzWQ2T1YpQKCYnlHorAYQCQiHE+wKhEGJWaVMMBBAKMWS5gjYiFCqAnqPKIoSC+6YBNwQ7GJOZCkePHjVHjhxJXmFop6Pb6et2irusgZfzZCDXbPq+OxXfnSLf6q0B7mDQnQLf6vWtrZYH5I0vB/7MUxAKmYhUn4BQUJ2eoIJDKCAUgurQNxuDUAgxq7QpBgIIhRiyXEEbEQoVQM9RZRFCwVbrbvqXDiX9xgD7Sj67KWBaOqQ37ZOfR0dHG5spNttsL88MhVab9KX3VkjXnxVfDvS5TkEo5MKk9iSEgtrUBBcYQgGhEFynNsYgFELMKm2KgQBCIYYsV9BGhEIF0HNUqVkoLFy4sLH5XfoViIODg2bLli3JDIdWn06FQrPr0q9RzPPWgRz4M09BKGQiUn0CQkF1eoIKDqGAUAiqQ99sDEIhxKzSphgIIBRiyHIFbUQoVAA9R5V1FQobN240O3bsMD09Pd6FgsiLgwcPTniVpF1H39/fn0gOhEKOzsUpBqFAJyiLAEIBoVBWXyuzHoRCmbSpCwL+CCAU/LGkJIcAQkFndwhJKMjeCVOnTjVTpkxJYDNDQWefiykqhEJM2a62rQgFhEK1PbCY2hEKxXClVAgUTQChUDThSMtHKOhMfFVCwX3CbzdRlKf/7h4KrZY8CMn0HgfN9mtwhYJcI5s89vb2TkjEZHsozJkzpxFPsz0UJovPV7ZZ8uCLZDXlIBSq4R5jrQgFhEKI/R6hEGJWaVMMBBAKMWS5gjYiFCqAnqPKIoSC+5o9G8LatWsnLCFw3wQhb2hYt26dWbZsmZE3Lshn1apVjTc7yM99fX1mbGwsOe5Kh02bNiXnp8u39do3NaTfEuG+5cGem34loPuWh23btpmhoaHkVPuWB1tmq/hy4M88BaGQiUj1CQgF1ekJKjiEAkIhqA59szEIhRCzSptiIIBQiCHLFbQRoVAB9BxVFiEUclTLKTkJIBRyglJ6GkJBaWICDAuhgFAIsFvzlocQk0qboiCAUIgizeU3EqFQPvM8NSIU8lCq7hyEQnXsfdSMUPBBkTLyEEAoIBTy9JO6ncMMhbpljHgh8DcCCAV6QiEEEAqFYO26UIRC1wgLLQChUCjewgtHKBSOmApuEkAoIBRCvBkQCiFmlTbFQAChEEOWK2gjQqEC6DmqRCjkgFThKQiFCuF7qBqh4AEiReQigFBAKOTqKDU7CaFQs4QRLgRuEkAo0BUKIYBQKARr14UiFLpGWGgBCIVC8RZeOEKhcMRUwAyFRh+46667fnf69OmP3XffffSLQAggFAJJJM2IjgBCIbqUl9NghEI5nNutBaHQLrFyz0colMvbd20IBd9EKa8VAWYoMEMhxLsDoRBiVmlTDAQQCjFkuYI2IhQqgJ6jSoRCDkgVnoJQqBC+h6oRCh4gUkQuAggFhEKujlKzkxAKNUsY4ULgJgGEAl2hEAIIhUKwdl0oQqFrhIUWgFAoFG/hhSMUCkdMBTcJIBQQCiHeDAiFELNKm2IggFCIIcsVtBGhUAH0HFUiFHJAqvAUhEKF8D1UXQeh8OEPf/j/fu9737vdQ3MpokICTz/99PUXX3zxvxpjDlUYRqVVs4dCpfgLqRyhUAhWCoVA4QQQCoUjjrMChILOvN9xxx3PDwwM/Je+vj6dAUYe1W9/+1vz+c9/3oyOjkZOop7N/+pXv/r2D3/4ww3GmH9S2oKej3zkIwffe++925TGR1g5CbzzzjvTr169utYY8885LwnuNIRCcCk1CIXwckqL4iCAUIgjz6W3EqFQOvJcFd5zzz1rr1y5suX2228fz3UBJ5VK4N133729p6fnjqtXr14ptWIq80Lg7bffnvrmm2/KIO/HXgqkEAhAoCUBhEJ4nSNIofDQQw9979e//vV//OAHP/iX8FJGi6oiIH9wTJ8+/cuXLl36dlUxOPUunz59+vc/+tGPvqkgFkIIiMCf/vSn9y5fvvyvjDFvB9QsmgIBCEAAAhCAgAICM2bM+D/Tp0//l7fffvsNBeEQggcC77zzzvuvXbv2pz/+8Y//xkNxpRXxvslquvPOO8/v2bPnX99///2lBURF4RM4fPiwee6557597dq1NUpa+++VxEEY4RH43+E1iRZBAAIQgAAEIKCAAH+/KkhCQSHU6u/HSYVCT0/PmeHh4bmf/OQnC2JFsTES+OY3v2mGhob2Xrt27R9jbD9thgAEIAABCEAAAhCAAAQgEAIBhEIIWaxZGxAKNUsY4UIAAhCAAAQgAAEIQAACEGhCAKFAtyidAEKhdORUCAEIQAACEIAABCAAAQhAwDsBhIJ3pBSYRQChkEWI4xCAAAQgAAEIQAACEIAABPQTQCjoz1FwESIUgkspDYIABCAAAQhAAAIQgAAEIiSAUIgw6VU3GaFQdQaoHwIQgAAEIAABCEAAAhCAQPcEEArdM6SENgkgFNoExukQgAAEIAABCEAAAhCAAAQUEkAoKExK6CEhFELPMO2DAAQgAAEIQAACEIAABGIggFCIIcvK2ohQUJYQwoEABCAAAQhAAAIQgAAEINABAYRCB9C4pDsCCIXu+HE1BCAAAQhAAAIQgAAEIAABDQQQChqyEFkMCIXIEk5zIQABCEAAAhCAAAQgAIEgCSAUgkyr7kYhFHTnh+ggAAEIQAACEIAABCAAAQjkIYBQyEOJc7wSQCh4xUlhEIAABCAAAQhAAAIQgAAEKiGAUKgEe9yVIhTizj+thwAEIAABCEAAAhCAAATCIIBQCCOPtWoFQqFW6SJYCEAAAhCAAAQgAAEIQAACTQkgFOgYpRNAKJSOnAohAAEIQAACEIAABCAAAQh4J4BQ8I6UArMIIBSyCHEcAhCAAAQgAAEIQAACEICAfgIIBf05Ci5ChEJwKaVBEIAABCAAAQhAAAIQgECEBBAKESa96iYjFKrOAPVDAAIQgAAEIAABCEAAAhDongBCoXuGlNAmAYRCm8A4HQIQgAAEIAABCEAAAhCAgEICCAWFSQk9JIRC6BmmfRCAAAQgAAEIQAACEIBADAQQCjFkWVkbEQrKEkI4EIAABCAAAQhAAHDTewwAABZeSURBVAIQgAAEOiCAUOgAGpd0RwCh0B0/roYABCAAAQhAAAIQgAAEIKCBAEJBQxYiiwGhEFnCaS4EIAABCEAAAhCAAAQgECQBhEKQadXdKISC7vwQHQQgAAEIQAACEIAABCAAgTwEEAp5KHGOVwIIBa84KQwCEIAABCAAAQhAAAIQgEAlBBAKlWCPu1KFQuGLcWeE1hdI4OsFlk3REIAABCAAAQhAAAIQqJQAQqFS/HFWrkwo9M6ePfvIihUrPhBnNmh1UQR27tz5/vfee2+aMeatouqgXAhAAAIQgAAEIAABCFRJAKFQJf1I69YmFB5++OHnR0ZG7ow0HTS7IAK33377u++8884dCIWCAFMsBCAAAQhAAAIQgEDlBBAKlacgvgAQCvHlPMYWIxRizDpthgAEIAABCEAAAnERQCjElW8VrUUoqEgDQRRMAKFQMGCKhwAEIAABCEAAAhConABCofIUxBcAQiG+nMfYYoRCjFmnzRCAAAQgAAEIQCAuAgiFuPKtorUIBRVpIIiCCSAUCgZM8RCAAAQgAAEIQAAClRNAKFSegvgCQCjEl/MYW4xQiDHrtBkCEIAABCAAAQjERQChEFe+VbQWoaAiDQRRMAGEQsGAKR4CEIAABCAAAQhAoHICCIXKUxBfAAiF+HIeY4sRCjFmnTZDAAIQgAAEIACBuAggFOLKt4rWIhRUpIEgCiaAUCgYMMVDAAIQgAAEIAABCFROAKFQeQriCwChEF/OY2wxQiHGrNNmCEAAAhCAAAQgEBcBhEJc+VbRWoSCijQQRMEEEAoFA6Z4CEAAAhCAAAQgAIHKCSAUKk9BfAEgFOLLeYwtRijEmHXaDAEIQAACEIAABOIigFCIK98qWotQUJEGgiiYAEKhYMAUDwEIQAACEIAABCBQOQGEQuUpiC8AhEJ8OY+xxQiFGLNOmyEAAQhAAAIQgEBcBBAKJeT77Nmz5sCBA2br1q1mypQpJdSouwqEQvH5OX36tFmwYEGjom3btpmhoaHCKpY+/tRTT5ndu3ebuXPnFlZPnQpGKNQpW8QKAQhAAAIQgAAEINAJATVCIT0AWrx4sTl8+LDp6enppF2qrtEmFIT1wYMHza5duyoRHAiFYrun9Lfh4WGzfv36pKKq811sa/WWjlDQmxsigwAEIAABCEAAAhDwQ0CVUDh58mShT1H9IGu/FITCRGYIhfb7UDtXSH87c+aM6e3tbVx2/Phxs2jRokoEUjuxh3QuQiGkbNIWCEAAAhCAAAQgAIFmBNQLBZmlMDY2ZkZGRsynPvUps27dOvPEE08k38nHncq9fft2M3PmTLN3797k+KFDh5JzVq1aZebNm2eOHDnSmI7tzoiwsyHk3I0bN5odO3YkMyOk7tHR0caTfCl/4cKFZv78+clTX3dK+alTp5Lvr1y5kpQhn3379hn5fsaMGY0lDxcuXGhMDZfvV65cmUgUudb9SF3y2bRpU6ONEo+0RT5r166dEJecJ590O6Uce0yuWbFihfnMZz7TqEoYSQxlfhAKxdK+fv16Y3ZCs1ko0kcl5ydOnLilv4iM6Ovru+X+avW9tMTeC26flO9b1SPnS7+Ue3nZsmUJDHv/FEum3NIRCuXypjYIQAACEIAABCAAgfIJqBIK7gDdDk6OHTuWTM9vtvxBBk6bN282q1evTkSBDFIuXryYDLRl4C4Do0cffTQZsMv1586dS/47PWNABjgyO2LDhg3JQKy/vz8Z4Es5cq4IBvkMDg6aLVu2JP/trheXc+T7Z555JjkmgzUpww7UbX2PP/64+eIXv5hrnbnbFtl3wcZo18FLe2xdbrdxz2s11b3qKfAIhXJudDvQd5cPyT2zc+dOMzAwkEiz9M/79+83y5cvT46JEJD7b82aNabV97YlUo7cp9Lvpb+m7033Hpk6dWpyn82aNSu5H6UekYBy/4W0xwhCoZx+Ti0QgAAEIAABCEAAAtURUCUUmi15aDZwdp+6Czr7dNOdQSCDFCsARDa4EuHll1+eMLtAynAFhvy8ZMmSZJAjMx7uv//+CbMM5Ho3VvtEWAZT995774RZDlKWfbp79913594Xwm2LlOHOTrDdxc7OSD89TrclPQMBoTDhhut9+OGHnx8ZGbmzutuw2JrdfI+PjzdmJ9ha3VktrWYbtPq+lVCQ88+fPz9h9ov04dmzZ5sHHnhggtRAKBSbf0qHAAQgAAEIQAACEIBAUQRqJxTcwZFAcWcUtCMUWu3X4M4meO211xJBIOvRr127luRABufubAf5Lo9QkLc8fPzjHzciI/JshthMKNj63c7g1m2XYtgNF+VJ9Jw5c25Z0oBQCFso/OY3v0lmGLgbmsoeCtKXZZlNntkAVlJ94QtfmNB/Wn2fnqGAUDCGGQpF/dqiXAhAAAIQgAAEIAABLQRqKRSsDLCDmz179iRLFPIKBXcfg/Qr7uxUbUmQbGongzAZgMlH9h+wsx3cJQ92TbidTeHuwyDXubMjWg3y0x0iLRTcOtyB4mTLPkReNHubQ9WbRLLkodjbP51fd1mDXW5gl/W4IkCikr1K7GaO9thjjz2W7CWS/t4ub7BSzV3yYPcSsfuRuD9LDO6yC2YoFNsfKB0CEIAABCAAAQhAAAJFEaidULBP5GXDQ1kbLlOo7eAor1CwexK4eza4mzuKGHD3bUjvZyDJcDdldKeMpwdSaaFgp5zL2nGRFZNtymg3gLTJTy97sBsqurHIE2X5bN26NVmPnt6UUWZHyEdmdghDKUPWzLszPYrqbLZchEKxhN3NEKWm9EadrTZLdO8tG6EsJ5IlCra/uN/bjURbbVDqLsVxY7D92N5zto9WsUFokZlghkKRdCkbAhCAAAQgAAEIQEADATVCQQOMWGNoJkGKZIFQKJIuZWshgFDQkgnigAAEIAABCEAAAhAoigBCoSiyNSrXbpaXfnVlUU1AKBRFlnI1EUAoaMoGsUAAAhCAAAQgAAEIFEEAoVAEVcqclABCgQ4SAwGEQgxZpo0QgAAEIAABCEAgbgIIhbjzX0nrEQqVYKfSkgkgFEoGTnUQgAAEIAABCEAAAqUTQCiUjpwKEQr0gRgIIBRiyDJthAAEIAABCEAAAnETQCjEnf9KWo9QqAQ7lZZMAKFQMnCqgwAEIAABCEAAAhAonQBCoXTkVIhQoA/EQAChEEOWaSMEIAABCEAAAhCIm0BthIK80/7AgQNm69atZsqUKcFk7fTp0+b8+fNm5cqVhbRJXgm5d+9es2HDBjXcEArtp/r69etm/fr1SV+Rt3L09PQYya30m9mzZ5tdu3apyW/7rQvzCoRCmHmlVRCAAAQgAAEIQAACfycQtVCQAdng4KDZsmWLmTt3bst+IQO4c+fOmaGhIa99RwaJmzdvNqtXr07K7evrM2NjYxPqmDdvnjly5Ij5xS9+YVatWtU4tnbt2lsGkdu3bzciKOyA054s3y9cuNCU9VrILEgIhSxCzY+LVHvqqafM7t27k/6a/rmzUvVfJe2Ue+UTn/iE/mCdCBEKtUoXwUIAAhCAAAQgAAEIdEAAoVChUGg160KEgHzcWQvud/ZpdX9/f0MSSFnylPrq1auJJHHlgUiGkydPehciHfS35BKEQmfkJMcinfbs2ZPkV/rE008/nQinyYRYZ7XpuUraKbMwtAixvGQQCnlJcR4EIAABCEAAAhCAQF0J1E4oCGgZRNkn93YgJYMO+wQ/z7EZM2YkA/YTJ04kubNP/I8dO9YoZ9u2bWbOnDkTZgacOnXKyLV28P7qq6+a559/3jz77LNm3759SVmLFy9uzBKQuF5//fWkHvmfO7Og1cyHPELBzmxw2287YXo2hQxEZRbGM888k0yVr/qDUOgsA5LH4eFhc+3atUQOSR/8+c9/niwDkn4g4mjBggVJ4e49IN/LLJV169aZZcuWJcelH8sAvdU1co4VGO6smUOHDpklS5Y07h1bzz333JMsyfiHf/gHMzIyYhYtWmTeeOMN89JLLzWEh12iIfeBve7y5cstY3PPt8Sk/qKWB3WWldZXIRR8E6U8CEAAAhCAAAQgAAFtBGolFNynszIQOnjwYDKoevnll5NBiZ3qn/fY+Pj4hCUPMoDZuHGj2bFjx4SBd3rgn35SnE6qKwTkvyVOG5vEKZJCBkXNxIGU1UootFry4C6dENmRbkOrdlXVGREKnZGXfnfhwoVkkD4wMGCOHj1qLl26ZFasWJFILnevDDn3zJkzpre3N1kuIIP9WbNmJSLC7qvx5JNPmu985zuN/TXcayRCubeWLl3akBWyf8Py5cvNzp07k/pFTknZ9mepT/q63D9f//rXk6U8Igzk88ADDzS9TmKQeyIdm7vnBzMUOusvXAUBCEAAAhCAAAQgAIGiCdRKKLibMrqD5BdeeCHhZJ9cunsjyN4DrY7JIMzdQ6HZxnd2gO8+9W+2VMF90ivXyOwGGbyl5YC7/MCVC26is2YoyLlyrXykjnQ86XLz7hVRdGez5SMUOiMteZYBuixfkT0x5L+lX9pBv+2rVjzZp/nuoN9u5ujKB3d2jzsDoJlQcGcn2Fa4sw2sdBCxIEtyRPbJ5957750wI0i+k+tkds+Pf/zjhqBotokoQqGz/sJVEIAABCAAAQhAAAIQKJpAEEJBBkf2qb8AcwfQP/jBD1oeSwsFC9tOtZYp4VYKTCYU0gN2d0bDZEKh3RkKrhhxJYI8Id60adOEvuIurWCGwqS3Ue/DDz/8/MjIyJ1F32zdlm83J3zttdeSZQ8PPvhgsgRChIJdwiODeBFr6RkK7qwCd4aCzCJodo29j+yyINufZFZPq7eG2DeWyCyGZkKh2XVZssNKEvZQ6Lb3cD0EIAABCEAAAhCAAAT8E6iVUEhvSDc6Otp0yYMM1PMcE5zpvQgsYnfALk9Z3U0N0zMC3AH71KlTJ0wvd5c82GOf/vSnG0semr09Is8MBSstZOp5+k0VacHBHgphCYU333yzsdznueeeS4SCzFZwXz/qzlJpNWgXYfaHP/yhMbMnPbPFnQVjCaY3BJWfXXnQaoaCLHmQZRd2I1F73WOPPZZsMmmXUDSboSCiQj4S709/+tNk+YSGvUCy/jlmD4UsQhyHAAQgAAEIQAACEKg7gVoJBbsR4ve///1JN2V0N0W0TzjtNPBWx+QJrGxa98QTTzRe3Wg3rnM3h7ObMrrLL9J1yHIH+djZDa02ZWz3LQ/N9lAQ2WH3kpgyZUqjP7qDQ97yUH+h4C7HkddGyiwF6VfSJ6TvfuUrXzFf+tKXGhuD/uhHP0o2CpUBvHzkPLsMR/qGzGiR/RNkU0e7mah7jcxMOH78uBEJJhssysfeO/LfduZCelNGEQp280cp1y55kHtXZjekr7OvQ03H5i69cDeHZFPGuv/KIX4IQAACEIAABCAAgZAI1EYo1BV6q2UN0h53M8UiX/snA0hZc6/ltXvsoaC/N9s3SsisAvsRwSB7IRTZV/WTyR8hMxTys+JMCEAAAhCAAAQgAIF6EkAoFJy3yYSCVJ11vNvwtO2fIO1BKHSb1XKudzdrlBrrNDugHEKT14JQ0JAFYoAABCAAAQhAAAIQKJIAQqFIupTdlABCgY4RAwGEQgxZpo0QgAAEIAABCEAgbgIIhbjzX0nrEQqVYKfSkgkgFEoGTnUQgAAEIAABCEAAAqUTQCiUjpwKEQr0gRgIIBRiyDJthAAEIAABCEAAAnETQCjEnf9KWo9QqAQ7lZZMAKFQMnCqgwAEIAABCEAAAhAonQBCoXTkVIhQoA/EQAChEEOWaSMEIAABCEAAAhCImwBCIe78V9J6hEIl2Km0ZAIIhZKBUx0EIAABCEAAAhCAQOkEEAqlI6dChAJ9IAYCCIUYskwbIQABCEAAAhCAQNwEEApx57+S1iMUKsFOpSUTQCiUDJzqIAABCEAAAhCAAARKJ4BQKB05FSIU6AMxEEAoxJBl2ggBCEAAAhCAAATiJoBQiDv/lbQeoVAJdiotmQBCoWTgVAcBCEAAAhCAAAQgUDoBhELpyKkQoUAfiIEAQiGGLNNGCEAAAhCAAAQgEDcBhELc+a+k9QiFSrBTackEEAolA6c6CEAAAhCAAAQgAIHSCSAUSkdOhQgF+kAMBBAKMWSZNkIAAhCAAAQgAIG4CSAU4s5/Ja1HKFSCnUpLJoBQKBk41UEAAhCAAAQgAAEIlE4AoVA6cirUJhSmTZv2w7vvvnuczEDAJ4E///nPN15//fVZxpi3fJZLWRCAAAQgAAEIQAACENBCAKGgJRMRxaFMKAj5eRHhp6nlEhgrtzpqgwAEIAABCEAAAhCAQHkEEArlsaammwQUCgVyAwEIQAACEIAABCAAAQhAAAJtEkAotAmM07sngFDoniElQAACEIAABCAAAQhAAAIQqJoAQqHqDERYP0IhwqTTZAhAAAIQgAAEIAABCEAgOAIIheBSqr9BCAX9OSJCCEAAAhCAAAQgAAEIQAACWQQQClmEOO6dAELBO1IKhAAEIAABCEAAAhCAAAQgUDoBhELpyKkQoUAfgAAEIAABCEAAAhCAAAQgUH8CCIX657B2LUAo1C5lBAwBCEAAAhCAAAQgAAEIQOAWAggFOkXpBBAKpSOnQghAAAIQgAAEIAABCEAAAt4JIBS8I6XALAIIhSxCHIcABCAAAQhAAAIQgAAEIKCfAEJBf46CixChEFxKaRAEIAABCEAAAhCAAAQgECEBhEKESa+6yQiFqjNA/RCAAAQgAAEIQAACEIAABLongFDoniEltEkAodAmME6HAAQgAAEIQAACEIAABCCgkABCQWFSQg8JoRB6hmkfBCAAAQhAAAIQgAAEIBADAYRCDFlW1kaEgrKEEA4EIAABCEAAAhCAAAQgAIEOCCAUOoDGJd0RQCh0x4+rIQABCEAAAhCAAAQgAAEIaCCAUNCQhchiQChElnCaCwEIQAACEIAABCAAAQgESQChEGRadTcKoaA7P0QHAQhAAAIQgAAEIAABCEAgDwGEQh5KnOOVAELBK04KgwAEIAABCEAAAhCAAAQgUAkBhEIl2OOuFKEQd/5pPQQgAAEIQAACEIAABCAQBgGEQhh5rFUrEAq1ShfBQgACEIAABCAAAQhAAAIQaEoAoUDHKJ0AQqF05FQIAQhAAAIQgAAEIAABCEDAOwGEgnekFJhFAKGQRYjjEIAABCAAAQhAAAIQgAAE9BNAKOjPUXARIhSCSykNggAEIAABCEAAAhCAAAQiJIBQiDDpVTcZoVB1BqgfAhCAAAQgAAEIQAACEIBA9wQQCt0zpIQ2CSAU2gTG6RCAAAQgAAEIQAACEIAABBQSQCgoTEroISEUQs8w7YMABCAAAQhAAAIQgAAEYiAwqVCYPn367x5//PGPzZo1KwYWtLEkAi+++KL52c9+9u3x8fE1JVVJNRCAAAQgAAEIQAACEIAABCDgmcCkQuEDH/jAf7px48Z/8FwnxUHA3Hnnnd+6evXq/wMFBCAAAQhAAAIQgAAEIAABCNSTwKRCoZ5NImoIQAACEIAABCAAAQhAAAIQgAAEiiaAUCiaMOVDAAIQgAAEIAABCEAAAhCAAAQCJIBQCDCpNAkCEIAABCAAAQhAAAIQgAAEIFA0AYRC0YQpHwIQgAAEIAABCEAAAhCAAAQgECCB/w/tv1zaeADikAAAAABJRU5ErkJggg==&quot;&gt;&lt;/div&gt;" style="text;whiteSpace=wrap;html=1;" vertex="1" parent="1">
          <mxGeometry x="30" y="930" width="860" height="555" as="geometry" />
        </mxCell>
      </root>
    </mxGraphModel>
  </diagram>
</mxfile>
